SplineFontDB: 3.0
FontName: Muli-Regular
FullName: Muli Regular
FamilyName: Muli
Weight: Regular
Copyright: Copyright (c) 2011-13 by vernon adams.
Version: 2.000
ItalicAngle: 0
UnderlinePosition: 0
UnderlineWidth: 0
Ascent: 1638
Descent: 410
UFOAscent: 1978
UFODescent: -679
LayerCount: 2
Layer: 0 0 "Back"  1
Layer: 1 0 "Fore"  0
OS2Version: 0
OS2_WeightWidthSlopeOnly: 0
OS2_UseTypoMetrics: 0
CreationTime: 1362293106
ModificationTime: 1362294277
PfmFamily: 0
TTFWeight: 400
TTFWidth: 5
LineGap: 0
VLineGap: 0
OS2TypoAscent: 1978
OS2TypoAOffset: 0
OS2TypoDescent: -679
OS2TypoDOffset: 0
OS2TypoLinegap: 0
OS2WinAscent: 1978
OS2WinAOffset: 0
OS2WinDescent: 679
OS2WinDOffset: 0
HheadAscent: 0
HheadAOffset: 1
HheadDescent: 0
HheadDOffset: 1
OS2Vendor: 'newt'
DEI: 91125
LangName: 1033 "" "" "" "vernonadams: Muli Regular: 2011" "" "Version 2.000" "" "Muli is a trademark of vernon adams." "vernon adams" "vernon adams" "Copyright (c) 2011 by vernon adams. All rights reserved." "" "" "Copyright (c) 2013, vernon adams (vern@newtypography.co.uk),+AAoA-with Reserved Font Name Muli.+AAoACgAA-This Font Software is licensed under the SIL Open Font License, Version 1.1.+AAoA-This license is copied below, and is also available with a FAQ at:+AAoA-http://scripts.sil.org/OFL+AAoA" "http://scripts.sil.org/OFL" 
Encoding: UnicodeBmp
Compacted: 1
UnicodeInterp: none
NameList: AGL For New Fonts
DisplaySize: -48
AntiAlias: 1
FitToEm: 1
WinInfo: 63 21 11
BeginChars: 65536 424

StartChar: A
Encoding: 65 65 0
Width: 1378
VWidth: 0
GlyphClass: 2
Flags: W
LayerCount: 2
Fore
SplineSet
419 535 m 1
 944 535 l 1
 739 1150 l 1
 686 1298 l 1
 634 1149 l 1
 419 535 l 1
32 0 m 1
 596 1456 l 1
 781 1456 l 1
 1346 0 l 1
 1155 0 l 1
 998 389 l 1
 369 389 l 1
 218 0 l 1
 32 0 l 1
EndSplineSet
EndChar

StartChar: AE
Encoding: 198 198 1
Width: 2028
VWidth: 0
GlyphClass: 2
Flags: W
LayerCount: 2
Fore
SplineSet
5 0 m 1
 836 1456 l 1
 1875 1456 l 1
 1878 1308 l 1
 1159 1308 l 1
 1197 820 l 1
 1834 820 l 1
 1837 672 l 1
 1216 672 l 1
 1257 148 l 1
 1898 148 l 1
 1901 0 l 1
 1104 0 l 1
 1073 398 l 1
 427 398 l 1
 201 0 l 1
 5 0 l 1
506 546 m 1
 1054 546 l 1
 994 1308 l 1
 944 1308 l 1
 506 546 l 1
EndSplineSet
EndChar

StartChar: B
Encoding: 66 66 11
Width: 1337
VWidth: 0
GlyphClass: 2
Flags: W
LayerCount: 2
Fore
SplineSet
188 0 m 1
 188 1456 l 1
 502 1456 l 2
 765 1456 1154 1443 1154 1105 c 0
 1154 944 1045 814 889 769 c 1
 1086 734 1223 605 1223 403 c 0
 1223 189 1059 0 739 0 c 2
 188 0 l 1
360 148 m 1
 667 148 l 2
 906 148 1041 230 1041 406 c 0
 1041 617 889 680 610 680 c 2
 360 680 l 1
 360 148 l 1
360 828 m 1
 580 828 l 2
 775 828 973 881 973 1077 c 0
 973 1272 807 1308 592 1308 c 2
 360 1308 l 1
 360 828 l 1
EndSplineSet
EndChar

StartChar: C
Encoding: 67 67 12
Width: 1375
VWidth: 0
GlyphClass: 2
Flags: W
LayerCount: 2
Fore
SplineSet
783 -23 m 0
 344 -23 106 309 106 713 c 0
 106 1125 369 1483 812 1483 c 0
 993 1483 1142 1437 1263 1329 c 1
 1198 1219 l 1
 1097 1295 967 1334 831 1334 c 0
 462 1334 289 1022 289 712 c 0
 289 398 451 125 809 125 c 0
 972 125 1132 172 1241 268 c 1
 1299 127 l 1
 1176 28 994 -23 783 -23 c 0
EndSplineSet
EndChar

StartChar: D
Encoding: 68 68 18
Width: 1505
VWidth: 0
GlyphClass: 2
Flags: W
LayerCount: 2
Fore
SplineSet
360 148 m 1
 615 148 l 2
 1039 148 1217 387 1217 721 c 0
 1217 1159 990 1308 518 1308 c 2
 360 1308 l 1
 360 148 l 1
188 0 m 1
 188 1456 l 1
 497 1456 l 2
 1018 1456 1399 1290 1399 724 c 0
 1399 282 1114 0 599 0 c 2
 188 0 l 1
EndSplineSet
EndChar

StartChar: E
Encoding: 69 69 21
Width: 1143
VWidth: 0
GlyphClass: 2
Flags: W
LayerCount: 2
Fore
SplineSet
188 0 m 1
 188 1456 l 1
 1045 1456 l 1
 1045 1308 l 1
 360 1308 l 1
 360 820 l 1
 1007 820 l 1
 1007 672 l 1
 360 672 l 1
 360 148 l 1
 1075 148 l 1
 1075 0 l 1
 188 0 l 1
EndSplineSet
EndChar

StartChar: Eng
Encoding: 330 330 30
Width: 1554
VWidth: 0
GlyphClass: 2
Flags: W
LayerCount: 2
Fore
SplineSet
531 -345 m 1
 550 -207 l 1
 697 -246 812 -265 902 -265 c 0
 1118 -265 1182 -156 1193 41 c 1
 432 1093 l 1
 360 1209 l 1
 360 0 l 1
 188 0 l 1
 188 1456 l 1
 384 1456 l 1
 1117 418 l 1
 1195 299 l 1
 1195 1456 l 1
 1366 1456 l 1
 1366 137 l 2
 1366 -197 1263 -395 905 -395 c 0
 803 -395 679 -379 531 -345 c 1
EndSplineSet
EndChar

StartChar: Eth
Encoding: 208 208 32
Width: 1505
VWidth: 0
GlyphClass: 2
Flags: W
LayerCount: 2
Fore
SplineSet
6 795 m 1
 573 795 l 1
 573 660 l 1
 6 660 l 1
 6 795 l 1
EndSplineSet
Refer: 18 68 N 1 0 0 1 0 0 2
EndChar

StartChar: Euro
Encoding: 8364 8364 33
Width: 1190
VWidth: 0
GlyphClass: 2
Flags: W
LayerCount: 2
Fore
SplineSet
751 -21 m 0
 424 -21 254 196 213 516 c 1
 78 516 l 1
 98 654 l 1
 200 654 l 1
 199 674 198 696 198 724 c 0
 198 741 198 761 199 784 c 1
 75 784 l 1
 97 922 l 1
 218 922 l 1
 274 1229 467 1448 783 1448 c 0
 915 1448 1023 1410 1106 1330 c 1
 1070 1141 l 1
 998 1248 893 1303 776 1303 c 0
 561 1303 441 1131 395 922 c 1
 987 922 l 1
 967 784 l 1
 377 784 l 1
 376 771 375 755 375 739 c 0
 375 698 378 654 378 654 c 1
 953 654 l 1
 934 516 l 1
 392 516 l 1
 423 285 533 125 767 125 c 0
 867 125 974 165 1084 253 c 1
 1083 75 l 1
 984 8 872 -21 751 -21 c 0
EndSplineSet
EndChar

StartChar: F
Encoding: 70 70 34
Width: 1092
VWidth: 0
GlyphClass: 2
Flags: W
LayerCount: 2
Fore
SplineSet
188 0 m 1
 188 1456 l 1
 1013 1456 l 1
 1013 1308 l 1
 360 1308 l 1
 360 815 l 1
 965 815 l 1
 965 667 l 1
 360 667 l 1
 360 0 l 1
 188 0 l 1
EndSplineSet
EndChar

StartChar: G
Encoding: 71 71 35
Width: 1494
VWidth: 0
GlyphClass: 2
Flags: W
LayerCount: 2
Fore
SplineSet
839 -23 m 0
 359 -23 106 267 106 701 c 0
 106 1129 380 1483 850 1483 c 0
 1043 1483 1229 1424 1329 1301 c 1
 1260 1196 l 1
 1162 1291 1002 1334 846 1334 c 0
 475 1334 284 1033 284 714 c 0
 284 365 470 125 853 125 c 0
 966 125 1086 143 1182 182 c 1
 1182 608 l 1
 809 608 l 1
 809 757 l 1
 1354 757 l 1
 1354 81 l 1
 1193 6 1010 -23 839 -23 c 0
EndSplineSet
EndChar

StartChar: H
Encoding: 72 72 40
Width: 1521
VWidth: 0
GlyphClass: 2
Flags: W
LayerCount: 2
Fore
SplineSet
188 0 m 1
 188 1456 l 1
 360 1456 l 1
 360 822 l 1
 1162 822 l 1
 1162 1456 l 1
 1333 1456 l 1
 1333 0 l 1
 1162 0 l 1
 1162 674 l 1
 360 674 l 1
 360 0 l 1
 188 0 l 1
EndSplineSet
EndChar

StartChar: Hbar
Encoding: 294 294 41
Width: 1521
VWidth: 0
GlyphClass: 2
Flags: HWO
LayerCount: 2
UndoRedoHistory
Layer: 1
Undoes
EndUndoes
Redoes
EndRedoes
EndUndoRedoHistory
Fore
SplineSet
91 1183 m 1
 90 1317 l 1
 1431 1317 l 1
 1431 1183 l 1
 91 1183 l 1
EndSplineSet
Refer: 40 72 N 1 0 0 1 0 0 2
EndChar

StartChar: I
Encoding: 73 73 43
Width: 572
VWidth: 0
GlyphClass: 2
Flags: W
LayerCount: 2
Fore
SplineSet
200 0 m 1
 200 1456 l 1
 372 1456 l 1
 372 0 l 1
 200 0 l 1
EndSplineSet
EndChar

StartChar: J
Encoding: 74 74 54
Width: 606
VWidth: 0
GlyphClass: 2
Flags: W
LayerCount: 2
Fore
SplineSet
107 -330 m 0
 -6 -330 -105 -294 -116 -289 c 1
 -95 -148 l 1
 -87 -151 -10 -182 89 -182 c 0
 225 -182 246 -83 246 124 c 2
 246 1456 l 1
 418 1456 l 1
 418 115 l 2
 418 -184 318 -330 107 -330 c 0
EndSplineSet
EndChar

StartChar: K
Encoding: 75 75 56
Width: 1260
VWidth: 0
GlyphClass: 2
Flags: W
LayerCount: 2
Fore
SplineSet
188 0 m 1
 188 1456 l 1
 360 1456 l 1
 360 796 l 1
 1004 1456 l 1
 1220 1456 l 1
 544 774 l 1
 1274 0 l 1
 1038 0 l 1
 360 725 l 1
 360 0 l 1
 188 0 l 1
EndSplineSet
EndChar

StartChar: L
Encoding: 76 76 57
Width: 1068
VWidth: 0
GlyphClass: 2
Flags: W
LayerCount: 2
Fore
SplineSet
188 0 m 1
 188 1456 l 1
 360 1456 l 1
 360 148 l 1
 1037 148 l 1
 1037 0 l 1
 188 0 l 1
EndSplineSet
EndChar

StartChar: Lslash
Encoding: 321 321 61
Width: 1120
VWidth: 0
GlyphClass: 2
Flags: W
LayerCount: 2
Fore
SplineSet
659 890 m 1
 15 489 l 1
 15 626 l 1
 659 1026 l 1
 659 890 l 1
EndSplineSet
Refer: 57 76 N 1 0 0 1 0 0 2
EndChar

StartChar: M
Encoding: 77 77 62
Width: 1860
VWidth: 0
GlyphClass: 2
Flags: W
LayerCount: 2
Fore
SplineSet
188 0 m 1
 188 1456 l 1
 406 1456 l 1
 845 440 l 1
 931 236 l 1
 1016 443 l 1
 1458 1456 l 1
 1672 1456 l 1
 1672 0 l 1
 1504 0 l 1
 1504 1180 l 1
 1453 1059 l 1
 992 0 l 1
 866 0 l 1
 418 1037 l 1
 358 1197 l 1
 358 0 l 1
 188 0 l 1
EndSplineSet
EndChar

StartChar: N
Encoding: 78 78 63
Width: 1554
VWidth: 0
GlyphClass: 2
Flags: W
LayerCount: 2
Fore
SplineSet
188 0 m 1
 188 1456 l 1
 384 1456 l 1
 1117 362 l 1
 1195 243 l 1
 1195 1456 l 1
 1366 1456 l 1
 1366 0 l 1
 1168 0 l 1
 432 1093 l 1
 360 1209 l 1
 360 0 l 1
 188 0 l 1
EndSplineSet
EndChar

StartChar: O
Encoding: 79 79 67
Width: 1610
VWidth: 0
GlyphClass: 2
Flags: W
LayerCount: 2
Fore
SplineSet
803 125 m 0
 1156 125 1316 387 1316 734 c 0
 1316 1073 1158 1335 806 1335 c 0
 458 1335 290 1048 290 725 c 0
 290 390 454 125 803 125 c 0
805 -23 m 0
 360 -23 106 271 106 729 c 0
 106 1166 358 1483 813 1483 c 0
 1249 1483 1504 1184 1504 726 c 0
 1504 286 1254 -23 805 -23 c 0
EndSplineSet
EndChar

StartChar: OE
Encoding: 338 338 68
Width: 2099
VWidth: 0
GlyphClass: 2
Flags: W
LayerCount: 2
Fore
SplineSet
829 -23 m 0
 384 -23 114 271 114 729 c 0
 114 1166 382 1483 837 1483 c 0
 954 1483 1059 1446 1151 1381 c 1
 1151 1456 l 1
 1954 1456 l 1
 1954 1308 l 1
 1323 1308 l 1
 1323 820 l 1
 1916 820 l 1
 1916 672 l 1
 1323 672 l 1
 1323 148 l 1
 1984 148 l 1
 1984 0 l 1
 1151 0 l 1
 1151 105 l 1
 1058 23 950 -23 829 -23 c 0
827 125 m 0
 960 125 1068 177 1151 265 c 1
 1151 1219 l 1
 1069 1292 962 1335 830 1335 c 0
 482 1335 298 1048 298 725 c 0
 298 390 478 125 827 125 c 0
EndSplineSet
EndChar

StartChar: Omega
Encoding: 937 937 76
Width: 1603
VWidth: 0
GlyphClass: 2
Flags: W
LayerCount: 2
Fore
SplineSet
104 0 m 1
 93 138 l 1
 435 137 l 1
 245 276 114 498 114 776 c 0
 114 1186 411 1449 809 1449 c 0
 1222 1449 1481 1156 1481 772 c 0
 1481 487 1323 271 1155 137 c 1
 1483 138 l 1
 1474 0 l 1
 953 0 l 1
 949 121 l 1
 1153 258 1303 484 1303 754 c 0
 1303 1050 1135 1309 804 1309 c 0
 502 1309 293 1085 293 759 c 0
 293 489 434 256 642 121 c 1
 645 0 l 1
 104 0 l 1
EndSplineSet
EndChar

StartChar: Oslash
Encoding: 216 216 77
Width: 1663
VWidth: 0
GlyphClass: 2
Flags: W
LayerCount: 2
Fore
SplineSet
449 -134 m 1
 313 -66 l 1
 1170 1561 l 1
 1306 1492 l 1
 449 -134 l 1
EndSplineSet
Refer: 67 79 N 1 0 0 1 0 0 2
EndChar

StartChar: P
Encoding: 80 80 79
Width: 1238
VWidth: 0
GlyphClass: 2
Flags: W
LayerCount: 2
Fore
SplineSet
188 0 m 1
 188 1456 l 1
 557 1456 l 2
 897 1456 1162 1379 1162 1020 c 0
 1162 716 928 587 610 587 c 2
 360 587 l 1
 360 0 l 1
 188 0 l 1
360 736 m 1
 649 736 l 2
 869 736 995 822 995 1018 c 0
 995 1251 854 1308 601 1308 c 2
 360 1308 l 1
 360 736 l 1
EndSplineSet
EndChar

StartChar: Q
Encoding: 81 81 80
Width: 1610
VWidth: 0
GlyphClass: 2
Flags: W
LayerCount: 2
Fore
SplineSet
1210 -422 m 1
 1210 -422 1014 -233 908 -9 c 1
 1073 20 l 1
 1162 -162 1322 -304 1322 -304 c 1
 1210 -422 l 1
EndSplineSet
Refer: 67 79 N 1 0 0 1 0 0 2
EndChar

StartChar: R
Encoding: 82 82 81
Width: 1320
VWidth: 0
GlyphClass: 2
Flags: W
LayerCount: 2
Fore
SplineSet
188 0 m 1
 188 1456 l 1
 533 1456 l 2
 771 1456 1114 1452 1114 1074 c 0
 1114 890 1035 762 847 715 c 1
 848 715 l 1
 1012 662 1039 510 1159 214 c 2
 1246 0 l 1
 1061 0 l 1
 896 419 l 2
 825 600 797 652 619 652 c 2
 360 652 l 1
 360 0 l 1
 188 0 l 1
360 799 m 1
 615 799 l 2
 795 799 932 854 932 1058 c 0
 932 1259 833 1308 626 1308 c 2
 360 1308 l 1
 360 799 l 1
EndSplineSet
EndChar

StartChar: S
Encoding: 83 83 85
Width: 1184
VWidth: 0
GlyphClass: 2
Flags: W
LayerCount: 2
Fore
SplineSet
592 -23 m 0
 317 -23 154 120 136 141 c 1
 215 271 l 1
 252 243 389 125 591 125 c 0
 793 125 894 204 894 360 c 0
 894 536 705 601 517 681 c 0
 329 761 141 857 141 1095 c 0
 141 1350 353 1483 616 1483 c 0
 887 1483 1005 1362 1030 1335 c 1
 947 1217 l 1
 917 1242 815 1334 636 1334 c 0
 474 1334 324 1270 324 1105 c 0
 324 934 511 868 699 785 c 0
 887 702 1074 602 1074 364 c 0
 1074 78 864 -23 592 -23 c 0
EndSplineSet
EndChar

StartChar: T
Encoding: 84 84 91
Width: 1133
VWidth: 0
GlyphClass: 2
Flags: W
LayerCount: 2
Fore
SplineSet
479 0 m 1
 479 1308 l 1
 10 1308 l 1
 10 1456 l 1
 1123 1456 l 1
 1123 1308 l 1
 651 1308 l 1
 651 0 l 1
 479 0 l 1
EndSplineSet
EndChar

StartChar: Tbar
Encoding: 358 358 92
Width: 1133
VWidth: 0
GlyphClass: 2
Flags: W
LayerCount: 2
Fore
SplineSet
124 609 m 1
 124 746 l 1
 994 746 l 1
 994 609 l 1
 124 609 l 1
EndSplineSet
Refer: 91 84 N 1 0 0 1 0 0 2
EndChar

StartChar: Thorn
Encoding: 222 222 94
Width: 1274
VWidth: 0
GlyphClass: 2
Flags: W
LayerCount: 2
Fore
SplineSet
203 0 m 1
 203 1456 l 1
 375 1456 l 1
 375 1215 l 1
 582 1215 l 2
 922 1215 1200 1138 1200 779 c 0
 1200 475 953 346 635 346 c 2
 375 346 l 1
 375 0 l 1
 203 0 l 1
375 495 m 1
 644 495 l 2
 864 495 1016 581 1016 777 c 0
 1016 1010 849 1067 596 1067 c 2
 375 1067 l 1
 375 495 l 1
EndSplineSet
EndChar

StartChar: U
Encoding: 85 85 95
Width: 1492
VWidth: 0
GlyphClass: 2
Flags: W
LayerCount: 2
Fore
SplineSet
738 -23 m 0
 321 -23 173 207 173 541 c 2
 173 1456 l 1
 345 1456 l 1
 345 546 l 2
 345 275 483 125 745 125 c 0
 988 125 1147 282 1147 539 c 2
 1147 1456 l 1
 1319 1456 l 1
 1318 551 l 1
 1316 190 1122 -23 738 -23 c 0
EndSplineSet
EndChar

StartChar: V
Encoding: 86 86 106
Width: 1249
VWidth: 0
GlyphClass: 2
Flags: W
LayerCount: 2
Fore
SplineSet
531 0 m 1
 14 1456 l 1
 206 1456 l 1
 583 349 l 1
 629 208 l 1
 677 350 l 1
 1056 1456 l 1
 1235 1456 l 1
 720 0 l 1
 531 0 l 1
EndSplineSet
EndChar

StartChar: W
Encoding: 87 87 107
Width: 1931
VWidth: 0
GlyphClass: 2
Flags: W
LayerCount: 2
Fore
SplineSet
399 0 m 1
 16 1456 l 1
 202 1456 l 1
 472 379 l 1
 512 199 l 1
 554 364 l 1
 882 1456 l 1
 1063 1456 l 1
 1382 375 l 1
 1430 200 l 1
 1464 362 l 1
 1735 1456 l 1
 1915 1456 l 1
 1532 0 l 1
 1320 0 l 1
 967 1227 l 1
 612 0 l 1
 399 0 l 1
EndSplineSet
EndChar

StartChar: X
Encoding: 88 88 112
Width: 1182
VWidth: 0
GlyphClass: 2
Flags: W
LayerCount: 2
Fore
SplineSet
987 0 m 1
 586 592 l 1
 191 0 l 1
 -6 0 l 1
 486 738 l 1
 0 1456 l 1
 209 1456 l 1
 589 892 l 1
 965 1456 l 1
 1161 1456 l 1
 687 745 l 1
 1188 0 l 1
 987 0 l 1
EndSplineSet
EndChar

StartChar: Y
Encoding: 89 89 113
Width: 1182
VWidth: 0
GlyphClass: 2
Flags: W
LayerCount: 2
Fore
SplineSet
500 0 m 1
 500 582 l 1
 18 1456 l 1
 209 1456 l 1
 589 727 l 1
 973 1456 l 1
 1164 1456 l 1
 672 585 l 1
 672 0 l 1
 500 0 l 1
EndSplineSet
EndChar

StartChar: Z
Encoding: 90 90 118
Width: 1170
VWidth: 0
GlyphClass: 2
Flags: W
LayerCount: 2
Fore
SplineSet
103 0 m 1
 103 92 l 1
 887 1308 l 1
 135 1308 l 1
 135 1456 l 1
 1119 1456 l 1
 1119 1368 l 1
 331 148 l 1
 1111 148 l 1
 1111 0 l 1
 103 0 l 1
EndSplineSet
EndChar

StartChar: a
Encoding: 97 97 122
Width: 1268
VWidth: 0
GlyphClass: 2
Flags: W
LayerCount: 2
Fore
SplineSet
593 -23 m 0
 249 -23 96 247 96 524 c 0
 96 802 264 1051 599 1051 c 0
 807 1051 910 921 933 865 c 1
 933 1026 l 1
 1092 1026 l 1
 1092 0 l 1
 929 0 l 1
 929 154 l 1
 873 42 757 -23 593 -23 c 0
608 917 m 0
 368 917 269 717 269 516 c 0
 269 316 359 109 609 109 c 0
 813 109 931 241 931 550 c 0
 931 772 826 917 608 917 c 0
EndSplineSet
EndChar

StartChar: acute
Encoding: 180 180 126
Width: 607
VWidth: 0
GlyphClass: 4
Flags: W
LayerCount: 2
Fore
SplineSet
84 1172 m 1
 310 1492 l 1
 522 1492 l 1
 214 1172 l 1
 84 1172 l 1
EndSplineSet
EndChar

StartChar: ae
Encoding: 230 230 128
Width: 1807
VWidth: 0
GlyphClass: 2
Flags: W
LayerCount: 2
Fore
SplineSet
441 -28 m 0
 230 -28 81 90 81 282 c 0
 81 594 410 615 771 615 c 1
 771 628 l 2
 771 782 712 917 540 917 c 0
 414 917 304 876 238 763 c 1
 148 856 l 1
 223 996 372 1053 550 1053 c 0
 672 1053 844 992 878 856 c 1
 953 987 1086 1053 1231 1053 c 0
 1553 1053 1697 839 1697 524 c 2
 1697 479 l 1
 942 479 l 1
 942 475 941 468 941 463 c 0
 941 285 1007 113 1242 113 c 0
 1379 113 1501 180 1577 292 c 1
 1664 206 l 1
 1575 54 1425 -25 1232 -25 c 0
 1071 -25 928 54 854 197 c 1
 768 59 617 -28 441 -28 c 0
474 109 m 0
 707 109 773 284 773 479 c 1
 627 476 l 2
 431 472 250 453 250 290 c 0
 250 159 356 109 474 109 c 0
943 616 m 1
 1524 616 l 1
 1523 626 l 1
 1507 798 1429 917 1250 917 c 0
 1066 917 957 776 943 616 c 1
EndSplineSet
EndChar

StartChar: ampersand
Encoding: 38 38 131
Width: 1495
VWidth: 0
GlyphClass: 2
Flags: W
LayerCount: 2
Fore
SplineSet
599 -27 m 0
 334 -27 134 131 134 402 c 0
 134 625 287 739 449 841 c 1
 362 945 291 1043 291 1182 c 0
 291 1374 429 1473 599 1473 c 0
 758 1473 918 1383 918 1188 c 0
 918 1029 793 908 656 822 c 1
 1009 398 l 1
 1086 526 1139 717 1139 884 c 1
 1281 863 l 1
 1274 660 1211 440 1108 284 c 1
 1149 243 1270 121 1413 86 c 1
 1300 -12 l 1
 1193 6 1056 139 1021 175 c 1
 919 57 788 -27 599 -27 c 0
596 116 m 0
 751 116 843 182 929 280 c 1
 535 739 l 1
 404 663 295 576 295 404 c 0
 295 237 415 116 596 116 c 0
568 918 m 1
 671 983 772 1064 772 1178 c 0
 772 1294 684 1340 605 1340 c 0
 513 1340 438 1286 438 1178 c 0
 438 1077 490 1000 568 918 c 1
EndSplineSet
EndChar

StartChar: approxequal
Encoding: 8776 8776 133
Width: 1351
VWidth: 0
GlyphClass: 2
Flags: W
LayerCount: 2
Fore
SplineSet
268 261 m 1
 154 289 l 1
 193 448 299 546 452 546 c 0
 544 546 629 503 707 460 c 0
 781 420 847 380 904 380 c 0
 988 380 1038 441 1077 546 c 1
 1187 518 l 1
 1153 365 1061 262 898 262 c 0
 818 262 741 295 631 359 c 0
 564 398 505 426 449 426 c 0
 352 426 297 361 268 261 c 1
267 634 m 1
 152 661 l 1
 188 819 296 917 450 917 c 0
 535 917 609 883 700 830 c 0
 788 778 850 752 902 752 c 0
 986 752 1038 811 1075 918 c 1
 1185 890 l 1
 1152 736 1058 634 896 634 c 0
 812 634 736 667 627 731 c 0
 560 770 502 799 446 799 c 0
 350 799 296 734 267 634 c 1
EndSplineSet
EndChar

StartChar: asciicircum
Encoding: 94 94 135
Width: 1111
VWidth: 0
GlyphClass: 2
Flags: W
LayerCount: 2
Fore
SplineSet
20 550 m 1
 501 1432 l 1
 602 1432 l 1
 1091 550 l 1
 936 550 l 1
 550 1260 l 1
 176 550 l 1
 20 550 l 1
EndSplineSet
EndChar

StartChar: asciitilde
Encoding: 126 126 136
Width: 1171
VWidth: 0
GlyphClass: 2
Flags: W
LayerCount: 2
Fore
SplineSet
187 385 m 1
 72 440 l 1
 101 578 187 675 354 675 c 0
 430 675 520 642 603 610 c 0
 686 578 762 545 810 545 c 0
 897 545 952 632 974 723 c 1
 1099 684 l 1
 1063 525 967 410 809 410 c 0
 749 410 667 443 585 476 c 0
 503 509 420 541 357 541 c 0
 254 541 209 479 187 385 c 1
EndSplineSet
EndChar

StartChar: asterisk
Encoding: 42 42 137
Width: 1131
VWidth: 0
GlyphClass: 2
Flags: W
LayerCount: 2
Fore
SplineSet
730 737 m 1
 572 1003 l 1
 419 745 l 1
 295 820 l 1
 486 1058 l 1
 213 1136 l 1
 234 1271 l 1
 518 1148 l 1
 484 1456 l 1
 633 1456 l 1
 619 1153 l 1
 854 1274 l 1
 918 1149 l 1
 655 1061 l 1
 856 810 l 1
 730 737 l 1
EndSplineSet
EndChar

StartChar: at
Encoding: 64 64 138
Width: 1510
VWidth: 0
GlyphClass: 2
Flags: W
LayerCount: 2
Fore
SplineSet
701 432 m 0
 854 432 970 641 970 849 c 0
 970 958 932 1026 830 1026 c 0
 665 1026 548 804 548 621 c 0
 548 509 603 432 701 432 c 0
818 -40 m 0
 397 -40 93 283 93 714 c 0
 93 1143 415 1476 822 1476 c 0
 1205 1476 1463 1202 1463 821 c 0
 1463 519 1299 279 1098 279 c 0
 1005 279 938 316 914 405 c 0
 912 413 910 422 909 431 c 1
 849 350 770 310 686 310 c 0
 547 310 412 426 412 648 c 0
 412 910 615 1153 828 1153 c 0
 918 1153 992 1110 1027 1042 c 1
 1043 1123 l 1
 1170 1123 l 1
 1120 884 l 2
 1074 664 1043 536 1043 479 c 0
 1043 432 1062 399 1116 399 c 0
 1252 399 1348 603 1348 826 c 0
 1348 1139 1144 1362 818 1362 c 0
 476 1362 224 1069 224 712 c 0
 224 349 464 76 823 76 c 0
 992 76 1151 136 1269 248 c 1
 1338 181 l 1
 1222 44 1026 -40 818 -40 c 0
EndSplineSet
EndChar

StartChar: b
Encoding: 98 98 140
Width: 1258
VWidth: 0
GlyphClass: 2
Flags: W
LayerCount: 2
Fore
SplineSet
694 -23 m 0
 552 -23 427 41 348 139 c 1
 344 0 l 1
 176 0 l 1
 176 0 183 237 183 270 c 2
 183 1492 l 1
 348 1492 l 1
 348 877 l 1
 422 993 556 1051 705 1051 c 0
 980 1051 1169 868 1169 545 c 0
 1169 196 986 -23 694 -23 c 0
690 109 m 0
 877 109 995 279 995 550 c 0
 995 775 875 917 683 917 c 0
 477 917 348 762 348 515 c 0
 348 266 480 109 690 109 c 0
EndSplineSet
EndChar

StartChar: backslash
Encoding: 92 92 141
Width: 751
VWidth: 0
GlyphClass: 2
Flags: W
LayerCount: 2
Fore
SplineSet
566 0 m 1
 19 1456 l 1
 187 1456 l 1
 732 0 l 1
 566 0 l 1
EndSplineSet
EndChar

StartChar: bar
Encoding: 124 124 142
Width: 1129
VWidth: 0
GlyphClass: 2
Flags: W
LayerCount: 2
Fore
SplineSet
486 -491 m 1
 486 1545 l 1
 643 1545 l 1
 643 -491 l 1
 486 -491 l 1
EndSplineSet
EndChar

StartChar: braceleft
Encoding: 123 123 143
Width: 776
VWidth: 0
GlyphClass: 2
Flags: W
LayerCount: 2
Fore
SplineSet
668 -254 m 1
 482 -246 286 -176 286 16 c 2
 286 279 l 2
 286 403 231 522 77 539 c 1
 77 661 l 1
 195 672 285 761 286 895 c 1
 286 1148 l 2
 286 1342 430 1456 668 1456 c 1
 668 1330 l 1
 564 1327 451 1289 451 1162 c 2
 451 873 l 2
 451 716 348 632 230 600 c 1
 364 558 451 420 451 330 c 2
 451 112 l 2
 451 -75 543 -128 668 -128 c 1
 668 -254 l 1
EndSplineSet
EndChar

StartChar: braceright
Encoding: 125 125 144
Width: 776
VWidth: 0
GlyphClass: 2
Flags: W
LayerCount: 2
Fore
SplineSet
105 -254 m 1
 105 -128 l 1
 209 -125 322 -87 322 40 c 2
 322 329 l 2
 322 486 425 570 543 602 c 1
 409 644 322 782 322 872 c 2
 322 1090 l 2
 322 1277 230 1330 105 1330 c 1
 105 1456 l 1
 291 1448 487 1378 487 1186 c 2
 487 923 l 2
 487 799 542 680 696 663 c 1
 696 541 l 1
 578 530 488 441 487 307 c 1
 487 54 l 2
 487 -140 343 -254 105 -254 c 1
EndSplineSet
EndChar

StartChar: bracketleft
Encoding: 91 91 145
Width: 674
VWidth: 0
GlyphClass: 2
Flags: W
LayerCount: 2
Fore
SplineSet
181 -254 m 1
 181 1456 l 1
 588 1456 l 1
 588 1334 l 1
 344 1334 l 1
 344 -132 l 1
 589 -132 l 1
 589 -254 l 1
 181 -254 l 1
EndSplineSet
EndChar

StartChar: bracketright
Encoding: 93 93 146
Width: 674
VWidth: 0
GlyphClass: 2
Flags: W
LayerCount: 2
Fore
SplineSet
138 -254 m 1
 138 -132 l 1
 382 -132 l 1
 382 1334 l 1
 137 1334 l 1
 137 1456 l 1
 545 1456 l 1
 545 -254 l 1
 138 -254 l 1
EndSplineSet
EndChar

StartChar: breve
Encoding: 728 728 147
Width: 629
VWidth: 0
GlyphClass: 4
Flags: W
LayerCount: 2
Fore
SplineSet
316 1218 m 0
 151 1218 45 1295 32 1456 c 1
 120 1456 l 1
 136 1360 222 1325 310 1325 c 0
 398 1325 488 1365 510 1456 c 1
 596 1456 l 1
 584 1298 473 1218 316 1218 c 0
EndSplineSet
EndChar

StartChar: brokenbar
Encoding: 166 166 148
Width: 500
VWidth: 0
GlyphClass: 2
Flags: W
LayerCount: 2
Fore
SplineSet
168 -491 m 1
 168 393 l 1
 325 393 l 1
 325 -491 l 1
 168 -491 l 1
168 677 m 1
 168 1545 l 1
 325 1545 l 1
 325 677 l 1
 168 677 l 1
EndSplineSet
EndChar

StartChar: bullet
Encoding: 8226 8226 149
Width: 989
VWidth: 0
GlyphClass: 2
Flags: W
LayerCount: 2
Fore
SplineSet
493 385 m 0
 306 385 157 526 157 694 c 0
 157 866 316 1010 498 1010 c 0
 682 1010 833 870 833 701 c 0
 833 529 677 385 493 385 c 0
EndSplineSet
EndChar

StartChar: c
Encoding: 99 99 150
Width: 1015
VWidth: 0
GlyphClass: 2
Flags: W
LayerCount: 2
Fore
SplineSet
603 -23 m 0
 300 -23 96 180 96 503 c 0
 96 840 299 1051 622 1051 c 0
 748 1051 869 1001 936 922 c 1
 888 805 l 1
 823 874 719 917 617 917 c 0
 404 917 270 759 270 508 c 0
 270 263 405 109 609 109 c 0
 714 109 825 145 899 202 c 1
 951 87 l 1
 871 19 745 -23 603 -23 c 0
EndSplineSet
EndChar

StartChar: caron
Encoding: 711 711 152
Width: 699
VWidth: 0
GlyphClass: 4
Flags: W
LayerCount: 2
Fore
SplineSet
272 1170 m 1
 33 1492 l 1
 180 1492 l 1
 344 1278 l 1
 512 1492 l 1
 666 1492 l 1
 428 1170 l 1
 272 1170 l 1
EndSplineSet
EndChar

StartChar: cedilla
Encoding: 184 184 157
Width: 529
VWidth: 0
GlyphClass: 4
Flags: W
LayerCount: 2
Fore
SplineSet
227 -396 m 0
 175 -396 113 -386 52 -374 c 1
 60 -289 l 1
 118 -304 170 -313 211 -313 c 0
 294 -313 325 -284 325 -241 c 0
 325 -187 280 -168 216 -168 c 0
 209 -168 147 -173 147 -173 c 1
 180 17 l 1
 277 17 l 1
 268 -90 l 1
 376 -95 468 -136 468 -239 c 0
 468 -346 363 -396 227 -396 c 0
EndSplineSet
EndChar

StartChar: cent
Encoding: 162 162 158
Width: 1171
VWidth: 0
GlyphClass: 2
Flags: W
LayerCount: 2
Fore
SplineSet
566 0 m 1
 568 1456 l 1
 697 1456 l 1
 695 0 l 1
 566 0 l 1
EndSplineSet
Refer: 150 99 N 1 0 0 1 61 249 2
EndChar

StartChar: circumflex
Encoding: 710 710 159
Width: 699
VWidth: 0
GlyphClass: 4
Flags: W
LayerCount: 2
Fore
SplineSet
42 1170 m 1
 270 1492 l 1
 428 1492 l 1
 656 1170 l 1
 524 1170 l 1
 346 1386 l 1
 168 1170 l 1
 42 1170 l 1
EndSplineSet
EndChar

StartChar: colon
Encoding: 58 58 160
Width: 545
VWidth: 0
GlyphClass: 2
Flags: W
LayerCount: 2
Fore
SplineSet
164 0 m 1
 164 210 l 1
 381 210 l 1
 381 0 l 1
 164 0 l 1
164 852 m 1
 164 1062 l 1
 381 1062 l 1
 381 852 l 1
 164 852 l 1
EndSplineSet
EndChar

StartChar: comma
Encoding: 44 44 161
Width: 502
VWidth: 0
GlyphClass: 2
Flags: W
LayerCount: 2
Fore
SplineSet
68 -256 m 1
 175 207 l 1
 362 207 l 1
 199 -256 l 1
 68 -256 l 1
EndSplineSet
EndChar

StartChar: commaaccent
Encoding: 806 -1 162
Width: 540
VWidth: 0
GlyphClass: 4
Flags: W
LayerCount: 2
UndoRedoHistory
Layer: 1
Undoes
EndUndoes
Redoes
EndRedoes
EndUndoRedoHistory
Fore
SplineSet
123 -594 m 1
 230 -131 l 1
 417 -131 l 1
 254 -594 l 1
 123 -594 l 1
EndSplineSet
EndChar

StartChar: copyright
Encoding: 169 169 163
Width: 1830
VWidth: 0
GlyphClass: 2
Flags: W
LayerCount: 2
Fore
SplineSet
942 249 m 0
 661 249 462 462 462 729 c 0
 462 1006 658 1208 953 1208 c 0
 1066 1208 1165 1174 1247 1105 c 1
 1216 985 l 1
 1143 1048 1051 1080 946 1080 c 0
 742 1080 615 926 615 733 c 0
 615 537 737 380 974 380 c 0
 1062 380 1144 405 1212 460 c 1
 1251 339 l 1
 1165 279 1061 249 942 249 c 0
915 1485 m 0
 1363 1485 1681 1149 1681 725 c 0
 1681 304 1363 -32 915 -32 c 0
 465 -32 147 304 147 725 c 0
 147 1149 465 1485 915 1485 c 0
917 1373 m 0
 536 1373 276 1082 276 724 c 0
 276 367 536 74 917 74 c 0
 1296 74 1558 367 1558 724 c 0
 1558 1082 1296 1373 917 1373 c 0
EndSplineSet
EndChar

StartChar: currency
Encoding: 164 164 164
Width: 1218
VWidth: 0
GlyphClass: 2
Flags: W
LayerCount: 2
Fore
SplineSet
1048 545 m 1
 862 731 l 1
 794 675 706 641 610 641 c 0
 514 641 426 675 358 732 c 1
 171 545 l 1
 120 596 l 1
 307 783 l 1
 252 849 219 933 219 1026 c 0
 219 1123 255 1211 314 1278 c 1
 119 1473 l 1
 170 1524 l 1
 367 1328 l 1
 433 1380 518 1411 610 1411 c 0
 702 1411 786 1380 853 1329 c 1
 1048 1524 l 1
 1099 1473 l 1
 906 1280 l 1
 966 1212 1002 1124 1002 1026 c 0
 1002 933 969 848 913 781 c 1
 1099 596 l 1
 1048 545 l 1
609 712 m 0
 783 712 911 852 911 1026 c 0
 911 1200 783 1333 609 1333 c 0
 435 1333 307 1200 307 1026 c 0
 307 852 435 712 609 712 c 0
EndSplineSet
EndChar

StartChar: d
Encoding: 100 100 165
Width: 1262
VWidth: 0
GlyphClass: 2
Flags: W
LayerCount: 2
Fore
SplineSet
561 -23 m 0
 275 -23 96 181 96 506 c 0
 96 841 278 1051 569 1051 c 0
 708 1051 842 988 915 888 c 1
 915 1492 l 1
 1080 1492 l 1
 1080 256 l 1
 1081 176 1083 77 1086 0 c 1
 919 0 l 1
 915 147 l 1
 841 43 705 -23 561 -23 c 0
587 109 m 0
 789 109 916 278 916 548 c 0
 916 775 793 917 596 917 c 0
 396 917 270 759 270 507 c 0
 270 263 392 109 587 109 c 0
EndSplineSet
EndChar

StartChar: dagger
Encoding: 8224 8224 166
Width: 1022
VWidth: 0
GlyphClass: 2
Flags: W
LayerCount: 2
Fore
SplineSet
433 113 m 1
 433 934 l 1
 107 934 l 1
 107 1066 l 1
 433 1066 l 1
 433 1451 l 1
 575 1451 l 1
 575 1066 l 1
 919 1066 l 1
 919 934 l 1
 561 934 l 1
 561 113 l 1
 433 113 l 1
EndSplineSet
EndChar

StartChar: daggerdbl
Encoding: 8225 8225 167
Width: 1022
VWidth: 0
GlyphClass: 2
Flags: W
LayerCount: 2
Fore
SplineSet
420 113 m 1
 442 435 l 1
 98 435 l 1
 98 562 l 1
 442 562 l 1
 442 983 l 1
 104 983 l 1
 104 1115 l 1
 448 1115 l 1
 422 1451 l 1
 593 1451 l 1
 572 1115 l 1
 916 1115 l 1
 916 983 l 1
 565 983 l 1
 565 562 l 1
 909 562 l 1
 909 435 l 1
 565 435 l 1
 591 113 l 1
 420 113 l 1
EndSplineSet
EndChar

StartChar: dblgravecmb
Encoding: 783 783 168
Width: 969
VWidth: 0
GlyphClass: 4
Flags: W
LayerCount: 2
Fore
SplineSet
429 1174 m 1
 153 1487 l 1
 329 1487 l 1
 549 1174 l 1
 429 1174 l 1
698 1174 m 1
 423 1487 l 1
 599 1487 l 1
 816 1174 l 1
 698 1174 l 1
EndSplineSet
EndChar

StartChar: dcroat
Encoding: 273 273 170
Width: 1262
VWidth: 0
GlyphClass: 2
Flags: W
LayerCount: 2
Fore
SplineSet
583 1232 m 1
 583 1370 l 1
 1193 1370 l 1
 1193 1232 l 1
 583 1232 l 1
EndSplineSet
Refer: 165 100 N 1 0 0 1 0 0 2
EndChar

StartChar: degree
Encoding: 176 176 171
Width: 844
VWidth: 0
GlyphClass: 2
Flags: W
LayerCount: 2
Fore
SplineSet
422 961 m 0
 540 961 606 1050 606 1151 c 0
 606 1252 537 1338 422 1338 c 0
 307 1338 238 1252 238 1151 c 0
 238 1050 304 961 422 961 c 0
422 855 m 0
 250 855 113 988 113 1150 c 0
 113 1312 249 1444 422 1444 c 0
 595 1444 731 1312 731 1150 c 0
 731 988 594 855 422 855 c 0
EndSplineSet
EndChar

StartChar: dieresis
Encoding: 168 168 172
Width: 743
VWidth: 0
GlyphClass: 4
Flags: W
LayerCount: 2
Fore
SplineSet
124 1183 m 1
 124 1346 l 1
 288 1346 l 1
 288 1183 l 1
 124 1183 l 1
456 1183 m 1
 456 1346 l 1
 620 1346 l 1
 620 1183 l 1
 456 1183 l 1
EndSplineSet
EndChar

StartChar: divide
Encoding: 247 247 173
Width: 1218
VWidth: 0
GlyphClass: 2
Flags: W
LayerCount: 2
Fore
SplineSet
505 21 m 1
 505 231 l 1
 722 231 l 1
 722 21 l 1
 505 21 l 1
146 485 m 1
 146 624 l 1
 1072 624 l 1
 1072 485 l 1
 146 485 l 1
505 873 m 1
 505 1083 l 1
 722 1083 l 1
 722 873 l 1
 505 873 l 1
EndSplineSet
EndChar

StartChar: dollar
Encoding: 36 36 174
Width: 1184
VWidth: 0
GlyphClass: 2
Flags: W
LayerCount: 2
Fore
SplineSet
565 -172 m 1
 565 1615 l 1
 688 1615 l 1
 688 -172 l 1
 565 -172 l 1
EndSplineSet
Refer: 85 83 N 1 0 0 1 0 0 2
EndChar

StartChar: dotaccent
Encoding: 729 729 175
Width: 524
VWidth: 0
GlyphClass: 4
Flags: W
LayerCount: 2
Fore
SplineSet
184 1246 m 1
 182 1409 l 1
 339 1409 l 1
 342 1246 l 1
 184 1246 l 1
EndSplineSet
EndChar

StartChar: dotaccentcmb
Encoding: 775 775 176
Width: 524
VWidth: 0
GlyphClass: 4
Flags: W
LayerCount: 2
Fore
SplineSet
184 1246 m 1
 182 1409 l 1
 339 1409 l 1
 342 1246 l 1
 184 1246 l 1
EndSplineSet
EndChar

StartChar: dotlessi
Encoding: 305 305 177
Width: 503
VWidth: 0
GlyphClass: 2
Flags: W
LayerCount: 2
Fore
SplineSet
168 0 m 1
 167 1026 l 1
 332 1026 l 1
 333 0 l 1
 168 0 l 1
EndSplineSet
EndChar

StartChar: dotlessj
Encoding: 567 567 178
Width: 503
VWidth: 0
GlyphClass: 2
Flags: W
LayerCount: 2
Fore
SplineSet
21 -427 m 0
 -16 -427 -57 -425 -101 -416 c 1
 -102 -273 l 1
 -66 -280 -39 -283 -18 -283 c 0
 112 -283 175 -186 175 31 c 2
 175 1026 l 1
 340 1026 l 1
 340 106 l 2
 340 -126 312 -427 21 -427 c 0
EndSplineSet
EndChar

StartChar: e
Encoding: 101 101 179
Width: 1152
VWidth: 0
GlyphClass: 2
Flags: W
LayerCount: 2
Fore
SplineSet
613 -23 m 0
 295 -23 96 183 96 510 c 0
 96 842 291 1051 601 1051 c 0
 879 1051 1053 855 1053 544 c 1
 1053 544 1052 530 1051 492 c 1
 271 492 l 1
 275 257 410 109 621 109 c 0
 741 109 872 159 961 238 c 1
 1013 115 l 1
 916 30 762 -23 613 -23 c 0
278 609 m 1
 880 609 l 1
 867 798 759 917 600 917 c 0
 429 917 305 798 278 609 c 1
EndSplineSet
EndChar

StartChar: eight
Encoding: 56 56 187
Width: 1218
VWidth: 0
GlyphClass: 2
Flags: W
LayerCount: 2
Fore
SplineSet
609 -23 m 0
 350 -23 116 119 116 375 c 0
 116 560 228 700 432 763 c 1
 256 820 151 942 151 1114 c 0
 151 1346 355 1483 609 1483 c 0
 864 1483 1068 1346 1068 1114 c 0
 1068 942 963 820 787 763 c 1
 991 700 1102 560 1102 375 c 0
 1102 119 869 -23 609 -23 c 0
609 122 m 0
 794 122 925 215 925 388 c 0
 925 552 794 650 609 687 c 1
 425 650 293 552 293 388 c 0
 293 215 425 122 609 122 c 0
609 837 m 1
 792 872 896 962 896 1109 c 0
 896 1262 763 1344 609 1344 c 0
 456 1344 323 1262 323 1109 c 0
 323 962 427 872 609 837 c 1
EndSplineSet
EndChar

StartChar: ellipsis
Encoding: 8230 8230 188
Width: 1620
VWidth: 0
GlyphClass: 2
Flags: W
LayerCount: 2
Fore
SplineSet
159 -11 m 1
 159 199 l 1
 376 199 l 1
 376 -11 l 1
 159 -11 l 1
699 -11 m 1
 699 199 l 1
 916 199 l 1
 916 -11 l 1
 699 -11 l 1
1239 -11 m 1
 1239 199 l 1
 1456 199 l 1
 1456 -11 l 1
 1239 -11 l 1
EndSplineSet
EndChar

StartChar: emdash
Encoding: 8212 8212 190
Width: 2171
VWidth: 0
GlyphClass: 2
Flags: W
LayerCount: 2
Fore
SplineSet
-3 489 m 1
 -3 626 l 1
 2160 626 l 1
 2160 489 l 1
 -3 489 l 1
EndSplineSet
EndChar

StartChar: endash
Encoding: 8211 8211 191
Width: 1085
VWidth: 0
GlyphClass: 2
Flags: W
LayerCount: 2
Fore
SplineSet
-6 489 m 1
 -6 626 l 1
 1084 626 l 1
 1084 489 l 1
 -6 489 l 1
EndSplineSet
EndChar

StartChar: eng
Encoding: 331 331 192
Width: 1250
VWidth: 0
GlyphClass: 2
Flags: W
LayerCount: 2
Fore
SplineSet
251 -345 m 1
 270 -207 l 1
 417 -246 532 -265 622 -265 c 0
 864 -265 921 -128 921 117 c 2
 921 531 l 2
 921 764 890 917 674 917 c 0
 475 917 348 742 347 652 c 1
 347 0 l 1
 182 0 l 1
 182 779 l 2
 182 902 176 1026 176 1026 c 1
 343 1026 l 1
 347 884 l 1
 427 996 552 1051 704 1051 c 0
 1003 1051 1086 844 1086 550 c 2
 1086 137 l 2
 1086 -197 983 -395 625 -395 c 0
 523 -395 399 -379 251 -345 c 1
EndSplineSet
EndChar

StartChar: equal
Encoding: 61 61 194
Width: 1172
VWidth: 0
GlyphClass: 2
Flags: W
LayerCount: 2
Fore
SplineSet
121 689 m 1
 121 827 l 1
 1050 827 l 1
 1050 689 l 1
 121 689 l 1
122 283 m 1
 122 420 l 1
 1051 420 l 1
 1051 283 l 1
 122 283 l 1
EndSplineSet
EndChar

StartChar: eth
Encoding: 240 240 195
Width: 1225
VWidth: 0
GlyphClass: 2
Flags: W
LayerCount: 2
Fore
SplineSet
599 -23 m 0
 297 -23 106 181 106 446 c 0
 106 710 315 897 594 897 c 0
 789 897 890 802 936 723 c 1
 936 733 l 2
 936 946.202 825.15 1106.35 682.906 1218.88 c 1
 516 1084 l 1
 445 1172 l 1
 586.176 1285.77 l 1
 475.343 1352.79 357.049 1395.17 262 1415 c 1
 341 1530 l 1
 434.671 1511.27 572.517 1466.94 705.787 1382.16 c 1
 888 1529 l 1
 959 1442 l 1
 800.394 1313.83 l 1
 969.93 1174.92 1111 959.091 1111 632 c 0
 1111 254 925 -23 599 -23 c 0
591 118 m 0
 830 118 921 322 921 512 c 2
 921 536 l 1
 875 667 762 757 602 757 c 0
 401 757 282 620 282 441 c 0
 282 258 405 118 591 118 c 0
EndSplineSet
EndChar

StartChar: exclam
Encoding: 33 33 196
Width: 548
VWidth: 0
GlyphClass: 2
Flags: W
LayerCount: 2
Fore
SplineSet
167 -23 m 1
 167 183 l 1
 381 183 l 1
 381 -23 l 1
 167 -23 l 1
228 373 m 1
 178 1456 l 1
 373 1456 l 1
 323 373 l 1
 228 373 l 1
EndSplineSet
EndChar

StartChar: f
Encoding: 102 102 198
Width: 696
VWidth: 0
GlyphClass: 2
Flags: W
LayerCount: 2
Fore
SplineSet
249 0 m 1
 249 919 l 1
 68 919 l 1
 68 1026 l 1
 249 1026 l 1
 249 1140 l 2
 249 1391 283 1488 651 1492 c 1
 676 1492 l 1
 676 1364 l 1
 416 1364 414 1324 414 1163 c 2
 414 1026 l 1
 662 1026 l 1
 662 919 l 1
 414 919 l 1
 414 0 l 1
 249 0 l 1
EndSplineSet
EndChar

StartChar: fi
Encoding: 64257 64257 199
Width: 1205
VWidth: 0
GlyphClass: 2
Flags: W
LayerCount: 2
Fore
SplineSet
246 0 m 1
 246 919 l 1
 45 919 l 1
 45 1026 l 1
 246 1026 l 1
 248 1138 l 2
 252 1354 318 1514 545 1514 c 0
 601 1514 632 1504 681 1492 c 1
 683 1364 l 1
 656 1375 612 1379 573 1379 c 0
 437 1379 413 1303 412 1162 c 2
 411 1026 l 1
 1034 1026 l 1
 1034 0 l 1
 869 0 l 1
 869 919 l 1
 411 919 l 1
 411 0 l 1
 246 0 l 1
877 1307 m 1
 877 1462 l 1
 1030 1462 l 1
 1030 1307 l 1
 877 1307 l 1
EndSplineSet
EndChar

StartChar: five
Encoding: 53 53 200
Width: 1218
VWidth: 0
GlyphClass: 2
Flags: W
LayerCount: 2
Fore
SplineSet
605 -23 m 0
 445 -23 284 18 167 137 c 1
 246 264 l 1
 345 157 479 124 603 124 c 0
 825 124 918 276 918 462 c 0
 918 636 820 775 627 775 c 0
 534 775 422 732 380 666 c 1
 224 666 l 1
 224 1456 l 1
 1001 1456 l 1
 1001 1308 l 1
 387 1308 l 1
 373 827 l 1
 436 890 541 925 633 925 c 0
 924 925 1095 726 1095 459 c 0
 1095 187 928 -23 605 -23 c 0
EndSplineSet
EndChar

StartChar: fl
Encoding: 64258 64258 201
Width: 1205
VWidth: 0
GlyphClass: 2
Flags: W
LayerCount: 2
Fore
SplineSet
411 919 m 1
 411 0 l 1
 246 0 l 1
 246 919 l 1
 45 919 l 1
 45 1026 l 1
 246 1026 l 1
 246 1114 l 2
 246 1368 336 1466 720 1466 c 2
 1035 1466 l 1
 1035 0 l 1
 870 0 l 1
 870 1338 l 1
 720 1338 l 2
 454 1338 411 1293 411 1137 c 2
 411 1026 l 1
 659 1026 l 1
 659 919 l 1
 411 919 l 1
EndSplineSet
EndChar

StartChar: florin
Encoding: 402 402 202
Width: 1190
VWidth: 0
GlyphClass: 2
Flags: W
LayerCount: 2
Fore
SplineSet
177 -293 m 0
 149 -293 114 -288 73 -277 c 1
 85 -139 l 1
 115 -150 141 -155 163 -155 c 0
 261 -155 313 -64 334 46 c 2
 487 842 l 1
 332 842 l 1
 342 982 l 1
 511 982 l 1
 534 1133 l 2
 561 1312 632 1475 865 1475 c 0
 909 1475 959 1468 1008 1456 c 1
 1000 1311 l 1
 960 1327 922 1333 891 1333 c 0
 775 1333 736 1277 718 1178 c 2
 682 982 l 1
 882 982 l 1
 872 842 l 1
 659 842 l 1
 532 159 l 2
 488 -79 422 -293 177 -293 c 0
EndSplineSet
EndChar

StartChar: four
Encoding: 52 52 203
Width: 1218
VWidth: 0
GlyphClass: 2
Flags: W
LayerCount: 2
Fore
SplineSet
726 0 m 1
 726 387 l 1
 100 387 l 1
 100 526 l 1
 666 1456 l 1
 898 1456 l 1
 898 519 l 1
 1112 519 l 1
 1112 387 l 1
 898 387 l 1
 898 0 l 1
 726 0 l 1
286 519 m 1
 726 519 l 1
 726 1278 l 1
 598 1052 l 1
 286 519 l 1
EndSplineSet
EndChar

StartChar: foursuperior
Encoding: 8308 8308 204
Width: 897
VWidth: 0
GlyphClass: 2
Flags: W
LayerCount: 2
Fore
SplineSet
356 615 m 1
 356 803 l 1
 -22 803 l 1
 -22 894 l 1
 344 1412 l 1
 478 1412 l 1
 478 910 l 1
 587 910 l 1
 597 803 l 1
 476 803 l 1
 476 615 l 1
 356 615 l 1
117 910 m 1
 354 910 l 1
 354 1244 l 1
 117 910 l 1
EndSplineSet
EndChar

StartChar: fraction
Encoding: 8260 8260 205
Width: 1218
VWidth: 0
GlyphClass: 2
Flags: W
LayerCount: 2
Fore
SplineSet
82 0 m 1
 987 1456 l 1
 1136 1456 l 1
 233 0 l 1
 82 0 l 1
EndSplineSet
EndChar

StartChar: g
Encoding: 103 103 206
Width: 1252
VWidth: 0
GlyphClass: 2
Flags: W
LayerCount: 2
Fore
SplineSet
555 -422 m 0
 429 -422 287 -390 187 -340 c 1
 206 -187 l 1
 301 -245 431 -282 543 -282 c 0
 805 -282 917 -183 917 49 c 2
 917 176 l 1
 843 68 707 0 565 0 c 0
 277 0 96 197 96 511 c 0
 96 843 282 1051 577 1051 c 0
 711 1051 842 987 917 885 c 1
 921 974 923 1026 923 1026 c 1
 1088 1026 l 1
 1088 1026 1082 857 1082 773 c 2
 1082 147 l 2
 1082 -251 924 -422 555 -422 c 0
574 135 m 0
 785 135 917 295 917 550 c 0
 917 775 794 917 598 917 c 0
 397 917 270 762 270 515 c 0
 270 282 387 135 574 135 c 0
EndSplineSet
EndChar

StartChar: gcedilla
Encoding: 291 291 208
Width: 1241
VWidth: 0
GlyphClass: 2
Flags: W
LayerCount: 2
Fore
SplineSet
550 -422 m 0
 418 -422 292 -396 182 -340 c 1
 201 -187 l 1
 306 -252 427 -282 538 -282 c 0
 773 -282 912 -180 912 49 c 2
 912 176 l 1
 833 60 705 0 560 0 c 0
 265 0 91 205 91 511 c 0
 91 803 251 1051 572 1051 c 0
 727 1051 833 992 912 885 c 1
 913 932 918 1026 918 1026 c 1
 1083 1026 l 1
 1083 1026 1077 857 1077 773 c 2
 1077 147 l 2
 1077 -124 999 -422 550 -422 c 0
590 135 m 0
 831 135 912 340 912 550 c 0
 912 753 790 917 593 917 c 0
 376 917 265 729 265 515 c 0
 265 284 348 135 590 135 c 0
480 1162 m 1
 643 1625 l 1
 774 1625 l 1
 667 1162 l 1
 480 1162 l 1
EndSplineSet
EndChar

StartChar: germandbls
Encoding: 223 223 211
Width: 1257
VWidth: 0
GlyphClass: 2
Flags: W
LayerCount: 2
Fore
SplineSet
792 -23 m 0
 677 -23 559 26 471 138 c 1
 536 243 l 1
 614 151 708 109 788 109 c 0
 896 109 986 185 986 322 c 0
 986 525 782 636 572 756 c 1
 588 892 l 1
 711 947 823 1056 823 1191 c 0
 823 1310 735 1382 603 1382 c 0
 416 1382 337 1226 337 1038 c 2
 337 0 l 1
 174 0 l 1
 174 1074 l 2
 174 1339 332 1511 604 1511 c 0
 859 1511 1011 1367 1011 1192 c 0
 1011 1023 819 884 719 838 c 0
 704 831 693 824 693 816 c 0
 693 810 702 804 722 798 c 0
 938 733 1173 604 1173 341 c 0
 1173 120 987 -23 792 -23 c 0
EndSplineSet
EndChar

StartChar: grave
Encoding: 96 96 212
Width: 593
VWidth: 0
GlyphClass: 4
Flags: W
LayerCount: 2
Fore
SplineSet
398 1172 m 1
 66 1492 l 1
 280 1492 l 1
 527 1172 l 1
 398 1172 l 1
EndSplineSet
EndChar

StartChar: greater
Encoding: 62 62 213
Width: 1171
VWidth: 0
GlyphClass: 2
Flags: W
LayerCount: 2
Fore
SplineSet
215 58 m 1
 215 212 l 1
 934 555 l 1
 220 926 l 1
 220 1078 l 1
 1115 594 l 1
 1115 505 l 1
 215 58 l 1
EndSplineSet
EndChar

StartChar: greaterequal
Encoding: 8805 8805 214
Width: 1350
VWidth: 0
GlyphClass: 2
Flags: W
LayerCount: 2
Fore
SplineSet
192 218 m 1
 192 359 l 1
 974 707 l 1
 196 1081 l 1
 196 1221 l 1
 1152 748 l 1
 1152 668 l 1
 192 218 l 1
161 9 m 1
 161 131 l 1
 1171 131 l 1
 1171 9 l 1
 161 9 l 1
EndSplineSet
EndChar

StartChar: guillemotleft
Encoding: 171 171 215
Width: 1156
VWidth: 0
GlyphClass: 2
Flags: W
LayerCount: 2
Fore
SplineSet
515 171 m 1
 246 541 l 1
 521 914 l 1
 681 914 l 1
 416 541 l 1
 672 171 l 1
 515 171 l 1
885 171 m 1
 616 541 l 1
 890 914 l 1
 1049 914 l 1
 786 541 l 1
 1042 171 l 1
 885 171 l 1
EndSplineSet
EndChar

StartChar: guillemotright
Encoding: 187 187 216
Width: 1156
VWidth: 0
GlyphClass: 2
Flags: W
LayerCount: 2
Fore
SplineSet
165 171 m 1
 430 542 l 1
 172 914 l 1
 330 914 l 1
 600 542 l 1
 325 171 l 1
 165 171 l 1
563 171 m 1
 824 542 l 1
 570 914 l 1
 726 914 l 1
 996 542 l 1
 720 171 l 1
 563 171 l 1
EndSplineSet
EndChar

StartChar: guilsinglleft
Encoding: 8249 8249 217
Width: 642
VWidth: 0
GlyphClass: 2
Flags: W
LayerCount: 2
Fore
SplineSet
374 171 m 1
 105 541 l 1
 379 914 l 1
 538 914 l 1
 275 541 l 1
 530 171 l 1
 374 171 l 1
EndSplineSet
EndChar

StartChar: guilsinglright
Encoding: 8250 8250 218
Width: 642
VWidth: 0
GlyphClass: 2
Flags: W
LayerCount: 2
Fore
SplineSet
103 171 m 1
 365 542 l 1
 111 914 l 1
 266 914 l 1
 537 542 l 1
 260 171 l 1
 103 171 l 1
EndSplineSet
EndChar

StartChar: h
Encoding: 104 104 219
Width: 1250
VWidth: 0
GlyphClass: 2
Flags: W
LayerCount: 2
Fore
SplineSet
176 0 m 1
 176 1492 l 1
 341 1492 l 1
 341 890 l 1
 415 989 553 1051 699 1051 c 0
 937 1051 1086 891 1086 636 c 2
 1086 0 l 1
 921 0 l 1
 921 626 l 2
 921 805 818 917 653 917 c 0
 461 917 341 789 341 585 c 2
 341 0 l 1
 176 0 l 1
EndSplineSet
EndChar

StartChar: hbar
Encoding: 295 295 220
Width: 1217
VWidth: 0
GlyphClass: 2
Flags: HW
LayerCount: 2
UndoRedoHistory
Layer: 1
Undoes
EndUndoes
Redoes
EndRedoes
EndUndoRedoHistory
Fore
SplineSet
1 1183 m 5
 0 1317 l 5
 571 1317 l 5
 572 1183 l 5
 1 1183 l 5
EndSplineSet
Refer: 219 104 N 1 0 0 1 0 0 2
EndChar

StartChar: hungarumlaut
Encoding: 733 733 222
Width: 969
VWidth: 0
GlyphClass: 4
Flags: W
LayerCount: 2
Fore
SplineSet
153 1174 m 1
 370 1487 l 1
 546 1487 l 1
 271 1174 l 1
 153 1174 l 1
420 1174 m 1
 640 1487 l 1
 816 1487 l 1
 540 1174 l 1
 420 1174 l 1
EndSplineSet
EndChar

StartChar: hyphen
Encoding: 45 45 223
Width: 659
VWidth: 0
GlyphClass: 2
Flags: W
LayerCount: 2
Fore
SplineSet
64 489 m 1
 64 626 l 1
 595 626 l 1
 595 489 l 1
 64 489 l 1
EndSplineSet
EndChar

StartChar: i
Encoding: 105 105 224
Width: 519
VWidth: 0
GlyphClass: 2
Flags: W
LayerCount: 2
Fore
SplineSet
177 0 m 1
 177 1026 l 1
 342 1026 l 1
 342 0 l 1
 177 0 l 1
185 1307 m 1
 185 1462 l 1
 338 1462 l 1
 338 1307 l 1
 185 1307 l 1
EndSplineSet
EndChar

StartChar: infinity
Encoding: 8734 8734 232
Width: 1724
VWidth: 0
GlyphClass: 2
Flags: W
LayerCount: 2
Fore
SplineSet
460 236 m 0
 244 236 96 409 96 612 c 0
 96 797 266 944 455 944 c 0
 618 944 746 844 862 692 c 1
 973 840 1094 944 1262 944 c 0
 1481 944 1621 798 1621 595 c 0
 1621 382 1453 236 1260 236 c 0
 1112 236 992 320 860 488 c 1
 746 341 620 236 460 236 c 0
463 355 m 0
 592 355 699 460 791 589 c 1
 699 724 592 829 453 829 c 0
 310 829 226 720 226 592 c 0
 226 471 320 355 463 355 c 0
1263 355 m 0
 1413 355 1482 470 1482 618 c 0
 1482 732 1390 829 1258 829 c 0
 1126 829 1012 714 929 592 c 1
 1048 437 1140 355 1263 355 c 0
EndSplineSet
EndChar

StartChar: integral
Encoding: 8747 8747 233
Width: 702
VWidth: 0
GlyphClass: 2
Flags: W
LayerCount: 2
Fore
SplineSet
260 -399 m 0
 204 -399 173 -390 124 -378 c 1
 122 -249 l 1
 149 -260 193 -264 232 -264 c 0
 368 -264 393 -188 393 -47 c 2
 393 1255 l 2
 393 1471 465 1631 692 1631 c 0
 748 1631 779 1622 828 1610 c 1
 830 1481 l 1
 803 1492 759 1496 720 1496 c 0
 584 1496 557 1420 557 1279 c 2
 557 -23 l 2
 557 -239 487 -399 260 -399 c 0
EndSplineSet
EndChar

StartChar: j
Encoding: 106 106 236
Width: 518
VWidth: 0
GlyphClass: 2
Flags: W
LayerCount: 2
Fore
SplineSet
45 -427 m 0
 -3 -427 -56 -419 -117 -401 c 1
 -100 -271 l 1
 -53 -285 -14 -292 19 -292 c 0
 153 -292 176 -175 176 31 c 2
 176 1026 l 1
 341 1026 l 1
 341 -14 l 2
 341 -257 256 -427 45 -427 c 0
175 1307 m 1
 175 1462 l 1
 328 1462 l 1
 328 1307 l 1
 175 1307 l 1
EndSplineSet
EndChar

StartChar: k
Encoding: 107 107 238
Width: 1070
VWidth: 0
GlyphClass: 2
Flags: W
LayerCount: 2
Fore
SplineSet
176 0 m 1
 176 1492 l 1
 341 1492 l 1
 341 587 l 1
 807 1026 l 1
 1032 1026 l 1
 502 542 l 1
 689 363 883 179 1070 0 c 1
 851 0 l 1
 341 501 l 1
 341 0 l 1
 176 0 l 1
EndSplineSet
EndChar

StartChar: kgreenlandic
Encoding: 312 312 240
Width: 1082
VWidth: 0
GlyphClass: 2
Flags: W
LayerCount: 2
Fore
SplineSet
178 0 m 1
 178 1026 l 1
 343 1026 l 1
 343 557 l 1
 809 1026 l 1
 1034 1026 l 1
 504 512 l 1
 691 342 885 170 1072 0 c 1
 853 0 l 1
 343 471 l 1
 343 0 l 1
 178 0 l 1
EndSplineSet
EndChar

StartChar: l
Encoding: 108 108 241
Width: 519
VWidth: 0
GlyphClass: 2
Flags: W
LayerCount: 2
Fore
SplineSet
177 0 m 1
 177 1492 l 1
 342 1492 l 1
 342 0 l 1
 177 0 l 1
EndSplineSet
EndChar

StartChar: less
Encoding: 60 60 245
Width: 1171
VWidth: 0
GlyphClass: 2
Flags: W
LayerCount: 2
Fore
SplineSet
989 58 m 1
 94 542 l 1
 94 631 l 1
 994 1078 l 1
 994 924 l 1
 275 581 l 1
 989 210 l 1
 989 58 l 1
EndSplineSet
EndChar

StartChar: lessequal
Encoding: 8804 8804 246
Width: 1351
VWidth: 0
GlyphClass: 2
Flags: W
LayerCount: 2
Fore
SplineSet
1146 216 m 1
 197 666 l 1
 197 747 l 1
 1146 1219 l 1
 1146 1079 l 1
 372 710 l 1
 1146 357 l 1
 1146 216 l 1
161 9 m 1
 161 131 l 1
 1175 131 l 1
 1175 9 l 1
 161 9 l 1
EndSplineSet
EndChar

StartChar: logicalnot
Encoding: 172 172 247
Width: 1458
VWidth: 0
GlyphClass: 2
Flags: W
LayerCount: 2
Fore
SplineSet
1098 238 m 1
 1098 659 l 1
 200 659 l 1
 200 798 l 1
 1248 798 l 1
 1248 238 l 1
 1098 238 l 1
EndSplineSet
EndChar

StartChar: lozenge
Encoding: 9674 9674 249
Width: 1248
VWidth: 0
GlyphClass: 2
Flags: W
LayerCount: 2
Fore
SplineSet
615 98 m 1
 979 711 l 1
 625 1324 l 1
 261 713 l 1
 615 98 l 1
562 -45 m 1
 112 711 l 1
 570 1470 l 1
 677 1470 l 1
 1130 712 l 1
 668 -45 l 1
 562 -45 l 1
EndSplineSet
EndChar

StartChar: lslash
Encoding: 322 322 250
Width: 503
VWidth: 0
GlyphClass: 2
Flags: W
LayerCount: 2
Fore
SplineSet
168 0 m 1
 168 689 l 1
 0 589 l 1
 0 726 l 1
 168 826 l 1
 168 1492 l 1
 333 1492 l 1
 333 925 l 1
 504 1026 l 1
 504 890 l 1
 333 788 l 1
 333 0 l 1
 168 0 l 1
EndSplineSet
EndChar

StartChar: m
Encoding: 109 109 251
Width: 1889
VWidth: 0
GlyphClass: 2
Flags: W
LayerCount: 2
Fore
SplineSet
189 0 m 1
 189 761 l 2
 189 847 187 950 183 1026 c 1
 350 1026 l 1
 354 888 l 1
 425 988 553 1051 685 1051 c 0
 832 1051 957 973 1007 849 c 1
 1076 973 1216 1051 1371 1051 c 0
 1593 1051 1732 891 1732 636 c 2
 1732 0 l 1
 1567 0 l 1
 1567 558 l 1
 1566 779 1536 917 1347 917 c 0
 1148 917 1047 790 1047 587 c 2
 1047 0 l 1
 882 0 l 1
 882 635 l 2
 882 808 787 917 636 917 c 0
 463 917 354 790 354 587 c 2
 354 0 l 1
 189 0 l 1
EndSplineSet
EndChar

StartChar: macron
Encoding: 175 175 252
Width: 728
VWidth: 0
GlyphClass: 2
Flags: W
LayerCount: 2
Fore
SplineSet
79 1183 m 1
 78 1317 l 1
 649 1317 l 1
 650 1183 l 1
 79 1183 l 1
EndSplineSet
EndChar

StartChar: middot
Encoding: 183 183 253
Width: 444
VWidth: 0
GlyphClass: 2
Flags: W
LayerCount: 2
Fore
SplineSet
76 513 m 1
 76 723 l 1
 293 723 l 1
 293 513 l 1
 76 513 l 1
EndSplineSet
EndChar

StartChar: minus
Encoding: 8722 8722 254
Width: 1219
VWidth: 0
GlyphClass: 2
Flags: W
LayerCount: 2
Fore
SplineSet
165 496 m 1
 165 633 l 1
 1054 633 l 1
 1054 496 l 1
 165 496 l 1
EndSplineSet
EndChar

StartChar: multiply
Encoding: 215 215 255
Width: 1218
VWidth: 0
GlyphClass: 2
Flags: W
LayerCount: 2
Fore
SplineSet
312 154 m 1
 209 257 l 1
 505 554 l 1
 209 851 l 1
 312 954 l 1
 609 657 l 1
 905 954 l 1
 1009 850 l 1
 712 554 l 1
 1009 258 l 1
 905 154 l 1
 609 450 l 1
 312 154 l 1
EndSplineSet
EndChar

StartChar: n
Encoding: 110 110 256
Width: 1250
VWidth: 0
GlyphClass: 2
Flags: W
LayerCount: 2
Fore
SplineSet
182 0 m 1
 182 779 l 2
 182 902 176 1026 176 1026 c 1
 343 1026 l 1
 347 884 l 1
 427 996 552 1051 704 1051 c 0
 1003 1051 1086 844 1086 550 c 2
 1086 0 l 1
 921 0 l 1
 921 531 l 2
 921 764 890 917 674 917 c 0
 475 917 348 742 347 652 c 1
 347 0 l 1
 182 0 l 1
EndSplineSet
EndChar

StartChar: napostrophe
Encoding: 329 329 258
Width: 1250
VWidth: 0
GlyphClass: 2
Flags: W
LayerCount: 2
Fore
SplineSet
212 1159 m 1
 176 1621 l 1
 360 1621 l 1
 342 1159 l 1
 212 1159 l 1
EndSplineSet
Refer: 256 110 N 1 0 0 1 0 0 2
EndChar

StartChar: nine
Encoding: 57 57 260
Width: 1220
VWidth: 0
GlyphClass: 2
Flags: W
LayerCount: 2
Fore
SplineSet
555 -24 m 0
 434 -24 304 13 175 79 c 1
 232 211 l 1
 346 152 450 124 542 124 c 0
 773 124 920 308 920 657 c 2
 920 722 l 1
 856 600 742 544 577 544 c 0
 298 544 138 735 138 1004 c 0
 138 1275 311 1483 613 1483 c 0
 939 1483 1095 1231 1095 774 c 0
 1095 203 855 -24 555 -24 c 0
314 1010 m 0
 314 827 393 687 604 687 c 0
 784 687 908 803 908 991 c 0
 908 1166 815 1334 605 1334 c 0
 419 1334 314 1196 314 1010 c 0
EndSplineSet
EndChar

StartChar: notequal
Encoding: 8800 8800 261
Width: 1351
VWidth: 0
GlyphClass: 2
Flags: W
LayerCount: 2
Fore
SplineSet
457 46 m 1
 335 64 l 1
 463 325 l 1
 170 325 l 1
 161 445 l 1
 524 445 l 1
 671 728 l 1
 170 728 l 1
 160 849 l 1
 728 849 l 1
 864 1123 l 1
 989 1105 l 1
 862 849 l 1
 1172 849 l 1
 1182 728 l 1
 804 728 l 1
 656 445 l 1
 1173 445 l 1
 1182 325 l 1
 597 325 l 1
 457 46 l 1
EndSplineSet
EndChar

StartChar: numbersign
Encoding: 35 35 263
Width: 1324
VWidth: 0
GlyphClass: 2
Flags: W
LayerCount: 2
Fore
SplineSet
259 60 m 1
 343 485 l 1
 91 485 l 1
 102 611 l 1
 367 611 l 1
 383 704 400 793 417 886 c 1
 156 886 l 1
 169 1010 l 1
 439 1010 l 1
 518 1420 l 1
 664 1420 l 1
 587 1010 l 1
 848 1010 l 1
 924 1420 l 1
 1070 1420 l 1
 992 1010 l 1
 1233 1010 l 1
 1219 886 l 1
 969 886 l 1
 918 611 l 1
 1170 611 l 1
 1156 485 l 1
 896 485 l 1
 813 60 l 1
 668 60 l 1
 748 485 l 1
 487 485 l 1
 405 60 l 1
 259 60 l 1
509 611 m 1
 773 611 l 1
 824 886 l 1
 563 886 l 1
 509 611 l 1
EndSplineSet
EndChar

StartChar: o
Encoding: 111 111 264
Width: 1244
VWidth: 0
GlyphClass: 2
Flags: W
LayerCount: 2
Fore
SplineSet
628 109 m 0
 841 109 974 264 974 511 c 0
 974 760 839 917 624 917 c 0
 407 917 270 760 270 509 c 0
 270 263 408 109 628 109 c 0
624 -23 m 0
 300 -23 96 183 96 511 c 0
 96 843 301 1051 628 1051 c 0
 947 1051 1148 843 1148 513 c 0
 1148 184 946 -23 624 -23 c 0
EndSplineSet
EndChar

StartChar: oe
Encoding: 339 339 269
Width: 1970
VWidth: 0
GlyphClass: 2
Flags: W
LayerCount: 2
Fore
SplineSet
1113 609 m 1
 1695 609 l 1
 1695 619 1694 629 1694 639 c 0
 1686 801 1596 917 1423 917 c 0
 1239 917 1124 770 1113 609 c 1
620 109 m 0
 845 109 945 299 945 511 c 0
 945 741 844 917 612 917 c 0
 386 917 265 725 265 507 c 0
 265 292 378 109 620 109 c 0
610 -28 m 0
 282 -28 92 212 92 509 c 0
 92 806 284 1053 620 1053 c 0
 816 1053 947 973 1027 821 c 1
 1100 974 1234 1053 1417 1053 c 0
 1711 1053 1868 842 1868 525 c 2
 1868 472 l 1
 1113 470 l 1
 1113 450 l 1
 1119 255 1221 109 1421 109 c 0
 1558 109 1678 180 1748 292 c 1
 1836 206 l 1
 1747 45 1591 -28 1410 -28 c 0
 1229 -28 1087 49 1022 209 c 1
 956 43 797 -28 610 -28 c 0
EndSplineSet
EndChar

StartChar: ogonek
Encoding: 731 731 270
Width: 508
VWidth: 0
GlyphClass: 4
Flags: W
LayerCount: 2
Fore
SplineSet
266 -390 m 0
 144 -390 48 -331 48 -225 c 0
 48 -123 154 -42 263 12 c 1
 392 0 l 1
 275 -71 189 -136 189 -199 c 0
 189 -249 241 -281 289 -281 c 0
 350 -281 388 -271 443 -250 c 1
 443 -361 l 1
 403 -377 326 -390 266 -390 c 0
EndSplineSet
EndChar

StartChar: one
Encoding: 49 49 274
Width: 1218
VWidth: 0
GlyphClass: 2
Flags: W
LayerCount: 2
Fore
SplineSet
299 0 m 1
 299 143 l 1
 558 143 l 1
 558 1265 l 1
 469 1214 381 1173 279 1133 c 1
 279 1289 l 1
 381 1325 516 1401 605 1456 c 1
 730 1456 l 1
 730 143 l 1
 975 143 l 1
 975 0 l 1
 299 0 l 1
EndSplineSet
EndChar

StartChar: onehalf
Encoding: 189 189 275
Width: 1986
VWidth: 0
GlyphClass: 2
Flags: W
LayerCount: 2
Fore
SplineSet
244 633 m 1
 244 752 l 1
 366 752 l 1
 366 1300 l 1
 323 1277 267 1252 214 1232 c 1
 214 1362 l 1
 284 1385 336 1413 382 1441 c 1
 487 1456 l 1
 487 749 l 1
 609 749 l 1
 609 633 l 1
 244 633 l 1
1148 0 m 1
 1148 111 l 1
 1391 335 1566 496 1566 607 c 0
 1566 674 1513 719 1426 719 c 0
 1343 719 1279 669 1241 588 c 1
 1156 666 l 1
 1202 774 1305 836 1432 836 c 0
 1582 836 1695 748 1695 609 c 0
 1695 437 1534 293 1330 118 c 1
 1694 118 l 1
 1694 0 l 1
 1148 0 l 1
383 0 m 1
 1288 1456 l 1
 1437 1456 l 1
 534 0 l 1
 383 0 l 1
EndSplineSet
EndChar

StartChar: onequarter
Encoding: 188 188 276
Width: 1986
VWidth: 0
GlyphClass: 2
Flags: W
LayerCount: 2
Fore
SplineSet
1442 36 m 1
 1442 224 l 1
 1064 224 l 1
 1064 315 l 1
 1430 833 l 1
 1564 833 l 1
 1564 331 l 1
 1673 331 l 1
 1683 224 l 1
 1562 224 l 1
 1562 36 l 1
 1442 36 l 1
1203 331 m 1
 1440 331 l 1
 1440 665 l 1
 1203 331 l 1
443 0 m 1
 1348 1456 l 1
 1497 1456 l 1
 594 0 l 1
 443 0 l 1
244 633 m 1
 244 752 l 1
 366 752 l 1
 366 1300 l 1
 323 1277 266 1252 213 1232 c 1
 214 1362 l 1
 284 1385 336 1413 382 1441 c 1
 487 1456 l 1
 487 749 l 1
 609 749 l 1
 609 633 l 1
 244 633 l 1
EndSplineSet
EndChar

StartChar: onesuperior
Encoding: 185 185 277
Width: 1190
VWidth: 0
GlyphClass: 2
Flags: W
LayerCount: 2
Fore
SplineSet
428 604 m 1
 428 723 l 1
 550 723 l 1
 550 1095 549 1173 549 1271 c 1
 506 1248 450 1223 397 1203 c 1
 398 1333 l 1
 468 1356 520 1384 566 1412 c 1
 671 1427 l 1
 671 720 l 1
 793 720 l 1
 793 604 l 1
 428 604 l 1
EndSplineSet
EndChar

StartChar: ordfeminine
Encoding: 170 170 278
Width: 745
VWidth: 0
GlyphClass: 2
Flags: W
LayerCount: 2
Fore
SplineSet
317 768 m 0
 173 768 66 849 66 975 c 0
 66 1090 168 1170 309 1192 c 0
 384 1204 464 1202 536 1211 c 1
 536 1219 l 2
 536 1334 499 1369 388 1369 c 0
 307 1369 228 1350 178 1275 c 1
 111 1350 l 1
 164 1441 269 1477 394 1477 c 0
 544 1477 669 1409 669 1235 c 1
 667 914 l 2
 667 899 668 869 674 786 c 1
 543 786 l 1
 537 860 l 1
 492 804 417 768 317 768 c 0
338 871 m 0
 473 871 532 973 536 1085 c 1
 536 1110 l 1
 396 1083 202 1106 202 977 c 0
 202 903 258 871 338 871 c 0
EndSplineSet
EndChar

StartChar: ordmasculine
Encoding: 186 186 279
Width: 893
VWidth: 0
GlyphClass: 2
Flags: W
LayerCount: 2
Fore
SplineSet
449 875 m 0
 591 875 669 988 669 1119 c 0
 669 1257 591 1369 446 1369 c 0
 305 1369 226 1256 226 1123 c 0
 226 986 299 875 449 875 c 0
449 767 m 0
 210 767 86 923 86 1124 c 0
 86 1321 217 1476 448 1476 c 0
 682 1476 807 1320 807 1121 c 0
 807 927 680 767 449 767 c 0
EndSplineSet
EndChar

StartChar: oslash
Encoding: 248 248 280
Width: 1238
VWidth: 0
GlyphClass: 2
Flags: W
LayerCount: 2
Fore
SplineSet
346 -261 m 1
 247 -229 l 1
 358 34 l 1
 183 121 90 301 90 511 c 0
 90 808 279 1051 620 1051 c 0
 678 1051 731 1044 780 1031 c 1
 884 1277 l 1
 987 1245 l 1
 880 993 l 1
 1052 905 1140 724 1140 513 c 0
 1140 224 953 -23 616 -23 c 0
 558 -23 505 -13 456 0 c 1
 346 -261 l 1
415 170 m 1
 725 902 l 1
 692 911 656 917 616 917 c 0
 384 917 263 723 263 509 c 0
 263 370 314 242 415 170 c 1
620 109 m 0
 854 109 966 298 966 511 c 0
 966 654 919 782 821 855 c 1
 510 124 l 1
 543 114 580 109 620 109 c 0
EndSplineSet
EndChar

StartChar: p
Encoding: 112 112 282
Width: 1253
VWidth: 0
GlyphClass: 2
Flags: W
LayerCount: 2
Fore
SplineSet
184 -427 m 1
 184 758 l 2
 184 814 181 927 176 1026 c 1
 343 1026 l 1
 348 880 l 1
 426 985 559 1051 693 1051 c 0
 978 1051 1157 849 1157 527 c 0
 1157 189 978 -23 693 -23 c 0
 560 -23 427 38 348 135 c 1
 348 -427 l 1
 184 -427 l 1
669 109 m 0
 861 109 981 268 981 521 c 0
 981 764 863 917 675 917 c 0
 474 917 348 754 348 494 c 0
 348 258 472 109 669 109 c 0
EndSplineSet
EndChar

StartChar: paragraph
Encoding: 182 182 283
Width: 1214
VWidth: 0
GlyphClass: 2
Flags: W
LayerCount: 2
Fore
SplineSet
465 -143 m 1
 465 791 l 1
 284 794 130 930 130 1135 c 0
 130 1386 369 1456 646 1456 c 2
 1032 1456 l 1
 1032 1332 l 1
 945 1332 l 1
 945 -143 l 1
 816 -143 l 1
 816 1332 l 1
 608 1332 l 1
 608 -143 l 1
 465 -143 l 1
EndSplineSet
EndChar

StartChar: parenleft
Encoding: 40 40 284
Width: 606
VWidth: 0
GlyphClass: 2
Flags: W
LayerCount: 2
Fore
SplineSet
398 -254 m 1
 243 -17 118 286 118 592 c 0
 118 911 228 1192 395 1456 c 1
 543 1456 l 1
 376 1190 281 897 281 595 c 0
 281 315 384 -3 544 -254 c 1
 398 -254 l 1
EndSplineSet
EndChar

StartChar: parenright
Encoding: 41 41 285
Width: 606
VWidth: 0
GlyphClass: 2
Flags: W
LayerCount: 2
Fore
SplineSet
78 -254 m 1
 230 -10 337 288 337 609 c 0
 337 876 242 1192 74 1456 c 1
 221 1456 l 1
 379 1211 501 909 501 603 c 0
 501 281 389 3 227 -254 c 1
 78 -254 l 1
EndSplineSet
EndChar

StartChar: partialdiff
Encoding: 8706 8706 286
Width: 1167
VWidth: 0
GlyphClass: 2
Flags: W
LayerCount: 2
Fore
SplineSet
492 -24 m 0
 222 -24 83 170 83 420 c 0
 83 748 307 1002 586 1002 c 0
 717 1002 824 940 902 836 c 1
 902 855 903 887 903 911 c 0
 903 1215 775 1399 565 1399 c 0
 469 1399 367 1356 291 1304 c 1
 280 1442 l 1
 360 1495 472 1533 588 1533 c 0
 888 1533 1074 1321 1074 852 c 0
 1074 419 886 -24 492 -24 c 0
495 111 m 0
 703 111 850 356 885 655 c 1
 846 768 747 869 609 869 c 0
 408 869 252 660 252 417 c 0
 252 232 346 111 495 111 c 0
EndSplineSet
EndChar

StartChar: percent
Encoding: 37 37 287
Width: 1686
VWidth: 0
GlyphClass: 2
Flags: W
LayerCount: 2
Fore
SplineSet
420 838 m 0
 564 838 610 968 610 1108 c 0
 610 1254 563 1374 421 1374 c 0
 275 1374 228 1243 228 1104 c 0
 228 958 276 838 420 838 c 0
416 725 m 0
 193 725 84 890 84 1103 c 0
 84 1318 202 1486 422 1486 c 0
 647 1486 753 1326 753 1107 c 0
 753 895 635 725 416 725 c 0
366 0 m 1
 1190 1456 l 1
 1335 1456 l 1
 510 0 l 1
 366 0 l 1
1268 86 m 0
 1413 86 1458 217 1458 357 c 0
 1458 503 1413 622 1270 622 c 0
 1122 622 1077 489 1077 350 c 0
 1077 206 1124 86 1268 86 c 0
1265 -27 m 0
 1044 -27 933 139 933 351 c 0
 933 566 1051 735 1271 735 c 0
 1496 735 1602 574 1602 356 c 0
 1602 144 1484 -27 1265 -27 c 0
EndSplineSet
EndChar

StartChar: period
Encoding: 46 46 288
Width: 545
VWidth: 0
GlyphClass: 2
Flags: W
LayerCount: 2
Fore
SplineSet
164 0 m 1
 164 210 l 1
 381 210 l 1
 381 0 l 1
 164 0 l 1
EndSplineSet
EndChar

StartChar: periodcentered
Encoding: 183 183 289
Width: 445
VWidth: 0
GlyphClass: 2
Flags: W
LayerCount: 2
Fore
SplineSet
114 513 m 1
 114 723 l 1
 331 723 l 1
 331 513 l 1
 114 513 l 1
EndSplineSet
EndChar

StartChar: perthousand
Encoding: 8240 8240 290
Width: 2386
VWidth: 0
GlyphClass: 2
Flags: W
LayerCount: 2
Fore
SplineSet
414 853 m 0
 541 853 604 964 604 1093 c 0
 604 1228 541 1335 411 1335 c 0
 282 1335 219 1225 219 1096 c 0
 219 961 282 853 414 853 c 0
410 740 m 0
 195 740 73 882 73 1095 c 0
 73 1298 195 1447 412 1447 c 0
 631 1447 749 1310 749 1092 c 0
 749 891 624 740 410 740 c 0
245 -21 m 1
 1183 1436 l 1
 1332 1436 l 1
 398 -21 l 1
 245 -21 l 1
1175 86 m 0
 1304 86 1367 199 1367 327 c 0
 1367 462 1305 567 1174 567 c 0
 1044 567 980 457 980 328 c 0
 980 192 1045 86 1175 86 c 0
1172 -27 m 0
 957 -27 835 115 835 328 c 0
 835 531 958 681 1176 681 c 0
 1395 681 1511 541 1511 325 c 0
 1511 124 1387 -27 1172 -27 c 0
1963 86 m 0
 2092 86 2156 198 2156 327 c 0
 2156 461 2091 567 1962 567 c 0
 1832 567 1768 457 1768 328 c 0
 1768 192 1833 86 1963 86 c 0
1959 -27 m 0
 1746 -27 1623 115 1623 328 c 0
 1623 531 1746 681 1964 681 c 0
 2179 681 2299 545 2299 325 c 0
 2299 124 2175 -27 1959 -27 c 0
EndSplineSet
EndChar

StartChar: pi
Encoding: 960 960 291
Width: 1288
VWidth: 0
GlyphClass: 2
Flags: W
LayerCount: 2
Fore
SplineSet
1061 -8 m 0
 905 -8 851 73 851 279 c 2
 851 907 l 1
 480 907 l 1
 480 907 434 169 341 0 c 1
 172 0 l 1
 272 177 302 616 311 907 c 1
 191 904 108 885 34 846 c 1
 17 977 l 1
 84 1029 189 1040 369 1040 c 2
 1214 1040 l 1
 1214 907 l 1
 1010 907 l 1
 1010 288 l 2
 1010 228 1011 147 1108 147 c 0
 1129 147 1156 151 1188 160 c 1
 1187 140 1185 120 1185 100 c 0
 1185 69 1188 38 1198 6 c 1
 1146 -3 1100 -8 1061 -8 c 0
EndSplineSet
EndChar

StartChar: plus
Encoding: 43 43 292
Width: 1172
VWidth: 0
GlyphClass: 2
Flags: W
LayerCount: 2
Fore
SplineSet
508 152 m 1
 510 575 l 1
 104 575 l 1
 102 714 l 1
 510 714 l 1
 513 1137 l 1
 663 1137 l 1
 661 714 l 1
 1069 714 l 1
 1069 575 l 1
 662 575 l 1
 659 152 l 1
 508 152 l 1
EndSplineSet
EndChar

StartChar: plusminus
Encoding: 177 177 293
Width: 1219
VWidth: 0
GlyphClass: 2
Flags: W
LayerCount: 2
Fore
SplineSet
538 223 m 1
 538 595 l 1
 149 595 l 1
 149 733 l 1
 536 733 l 1
 536 1107 l 1
 685 1107 l 1
 685 733 l 1
 1066 733 l 1
 1066 595 l 1
 689 595 l 1
 689 223 l 1
 538 223 l 1
161 0 m 1
 161 138 l 1
 1070 138 l 1
 1070 0 l 1
 161 0 l 1
EndSplineSet
EndChar

StartChar: product
Encoding: 8719 8719 294
Width: 1568
VWidth: 0
GlyphClass: 2
Flags: W
LayerCount: 2
Fore
SplineSet
251 -329 m 1
 251 1278 l 1
 126 1278 l 1
 110 1423 l 1
 1456 1423 l 1
 1440 1278 l 1
 1327 1278 l 1
 1327 -329 l 1
 1149 -329 l 1
 1149 1278 l 1
 426 1278 l 1
 426 -329 l 1
 251 -329 l 1
EndSplineSet
EndChar

StartChar: q
Encoding: 113 113 295
Width: 1253
VWidth: 0
GlyphClass: 2
Flags: W
LayerCount: 2
Fore
SplineSet
905 -427 m 1
 905 148 l 1
 827 43 689 -23 547 -23 c 0
 270 -23 96 181 96 506 c 0
 96 841 278 1051 569 1051 c 0
 703 1051 832 992 905 898 c 1
 910 1026 l 1
 1077 1026 l 1
 1072 949 1070 865 1070 813 c 2
 1070 -427 l 1
 905 -427 l 1
584 109 m 0
 781 109 905 276 905 543 c 0
 905 773 785 917 595 917 c 0
 395 917 269 759 269 507 c 0
 269 263 391 109 584 109 c 0
EndSplineSet
EndChar

StartChar: question
Encoding: 63 63 296
Width: 1072
VWidth: 0
GlyphClass: 2
Flags: W
LayerCount: 2
Fore
SplineSet
363 368 m 1
 363 368 353 475 353 530 c 0
 353 773 737 885 737 1125 c 0
 737 1276 598 1336 451 1336 c 0
 359 1336 270 1312 190 1267 c 1
 190 1413 l 1
 285 1460 387 1478 471 1478 c 0
 716 1478 906 1364 906 1133 c 0
 906 879 499 702 499 513 c 2
 499 368 l 1
 363 368 l 1
336 -11 m 1
 336 199 l 1
 553 199 l 1
 553 -11 l 1
 336 -11 l 1
EndSplineSet
EndChar

StartChar: quotedbl
Encoding: 34 34 298
Width: 821
VWidth: 0
GlyphClass: 2
Flags: W
LayerCount: 2
Fore
SplineSet
230 959 m 1
 174 1456 l 1
 357 1456 l 1
 311 959 l 1
 230 959 l 1
519 959 m 1
 463 1456 l 1
 647 1456 l 1
 599 959 l 1
 519 959 l 1
EndSplineSet
EndChar

StartChar: quotedblbase
Encoding: 8222 8222 299
Width: 1024
VWidth: 0
GlyphClass: 2
Flags: W
LayerCount: 2
Fore
SplineSet
178 -238 m 1
 283 201 l 1
 465 201 l 1
 312 -238 l 1
 178 -238 l 1
537 -238 m 1
 641 201 l 1
 824 201 l 1
 670 -238 l 1
 537 -238 l 1
EndSplineSet
EndChar

StartChar: quotedblleft
Encoding: 8220 8220 300
Width: 1024
VWidth: 0
GlyphClass: 2
Flags: W
LayerCount: 2
Fore
SplineSet
179 1026 m 1
 333 1463 l 1
 466 1463 l 1
 361 1026 l 1
 179 1026 l 1
528 1026 m 1
 682 1463 l 1
 815 1463 l 1
 711 1026 l 1
 528 1026 l 1
EndSplineSet
EndChar

StartChar: quotedblright
Encoding: 8221 8221 301
Width: 1024
VWidth: 0
GlyphClass: 2
Flags: W
LayerCount: 2
Fore
SplineSet
208 1026 m 1
 312 1463 l 1
 494 1463 l 1
 341 1026 l 1
 208 1026 l 1
534 1026 m 1
 639 1463 l 1
 821 1463 l 1
 667 1026 l 1
 534 1026 l 1
EndSplineSet
EndChar

StartChar: quoteleft
Encoding: 8216 8216 302
Width: 1182
VWidth: 0
GlyphClass: 2
Flags: W
LayerCount: 2
Fore
SplineSet
738 976 m 1
 392 1456 l 1
 602 1456 l 1
 868 976 l 1
 738 976 l 1
EndSplineSet
EndChar

StartChar: quoteright
Encoding: 8217 8217 303
Width: 453
VWidth: 0
GlyphClass: 2
Flags: W
LayerCount: 2
Fore
SplineSet
171 823 m 1
 136 1456 l 1
 317 1456 l 1
 283 823 l 1
 171 823 l 1
EndSplineSet
EndChar

StartChar: quotesinglbase
Encoding: 8218 8218 304
Width: 553
VWidth: 0
GlyphClass: 2
Flags: W
LayerCount: 2
Fore
SplineSet
125 -238 m 1
 231 201 l 1
 412 201 l 1
 258 -238 l 1
 125 -238 l 1
EndSplineSet
EndChar

StartChar: quotesingle
Encoding: 39 39 305
Width: 554
VWidth: 0
GlyphClass: 2
Flags: W
LayerCount: 2
Fore
SplineSet
212 989 m 1
 176 1451 l 1
 360 1451 l 1
 342 989 l 1
 212 989 l 1
EndSplineSet
EndChar

StartChar: r
Encoding: 114 114 306
Width: 831
VWidth: 0
GlyphClass: 2
Flags: W
LayerCount: 2
Fore
SplineSet
182 0 m 1
 182 779 l 2
 182 862 179 949 176 1026 c 1
 341 1026 l 1
 347 871 l 1
 402 984 504 1050 621 1050 c 0
 660 1050 696 1046 729 1038 c 1
 731 883 l 1
 703 898 661 907 616 907 c 0
 455 907 347 777 347 568 c 2
 347 0 l 1
 182 0 l 1
EndSplineSet
EndChar

StartChar: radical
Encoding: 8730 8730 308
Width: 1314
VWidth: 0
GlyphClass: 2
Flags: W
LayerCount: 2
Fore
SplineSet
611 -153 m 1
 279 690 l 1
 107 662 l 1
 87 774 l 1
 382 825 l 1
 669 41 l 1
 1082 1596 l 1
 1212 1596 l 1
 746 -153 l 1
 611 -153 l 1
EndSplineSet
EndChar

StartChar: registered
Encoding: 174 174 311
Width: 1830
VWidth: 0
GlyphClass: 2
Flags: W
LayerCount: 2
Fore
SplineSet
749 783 m 1
 874 783 l 2
 1046 783 1152 798 1152 920 c 0
 1152 1053 1075 1072 866 1072 c 2
 749 1072 l 1
 749 783 l 1
603 273 m 1
 603 1192 l 1
 876 1192 l 2
 1168 1192 1307 1100 1307 935 c 0
 1307 813 1227 704 1042 681 c 1
 1116 613 1196 487 1326 273 c 1
 1158 273 l 1
 1158 273 936 633 888 664 c 1
 751 664 l 1
 751 273 l 1
 603 273 l 1
918 1373 m 0
 537 1373 277 1082 277 724 c 0
 277 367 537 74 918 74 c 0
 1297 74 1559 367 1559 724 c 0
 1559 1082 1297 1373 918 1373 c 0
916 1485 m 0
 1364 1485 1682 1149 1682 725 c 0
 1682 304 1364 -32 916 -32 c 0
 466 -32 148 304 148 725 c 0
 148 1149 466 1485 916 1485 c 0
EndSplineSet
EndChar

StartChar: ring
Encoding: 730 730 312
Width: 605
VWidth: 0
GlyphClass: 4
Flags: W
LayerCount: 2
Fore
SplineSet
302 1235 m 0
 360 1235 412 1283 412 1340 c 0
 412 1398 364 1445 302 1445 c 0
 244 1445 192 1397 192 1340 c 0
 192 1279 234 1235 302 1235 c 0
304 1149 m 0
 187 1149 92 1232 92 1339 c 0
 92 1449 187 1530 302 1530 c 0
 420 1530 512 1445 512 1340 c 0
 512 1234 417 1149 304 1149 c 0
EndSplineSet
EndChar

StartChar: s
Encoding: 115 115 313
Width: 967
VWidth: 0
GlyphClass: 2
Flags: W
LayerCount: 2
Fore
SplineSet
498 -23 m 0
 282 -23 145 70 116 94 c 1
 160 222 l 1
 208 189 348 109 484 109 c 0
 589 109 711 141 711 272 c 0
 711 395 561 426 412 474 c 1
 262 521 112 585 112 771 c 0
 112 970 318 1051 488 1051 c 0
 715 1051 792 991 832 966 c 1
 785 851 l 1
 772 858 667 917 504 917 c 0
 355 917 283 882 283 774 c 0
 283 660 433 629 582 581 c 0
 732 533 881 468 881 284 c 0
 881 62 685 -23 498 -23 c 0
EndSplineSet
EndChar

StartChar: scommaaccent
Encoding: 537 537 318
Width: 1007
VWidth: 0
GlyphClass: 2
Flags: W
LayerCount: 2
Fore
SplineSet
483 -23 m 0
 361 -23 208 -2 121 94 c 1
 165 229 l 1
 240 140 377 109 489 109 c 0
 594 109 735 141 735 272 c 0
 735 517 117 398 117 771 c 0
 117 970 323 1051 493 1051 c 0
 608 1051 743 1039 837 966 c 1
 790 844 l 1
 708 900 599 917 502 917 c 0
 415 917 288 882 288 774 c 0
 288 545 905 651 905 284 c 0
 905 62 670 -23 483 -23 c 0
356 -625 m 1
 463 -162 l 1
 650 -162 l 1
 487 -625 l 1
 356 -625 l 1
EndSplineSet
EndChar

StartChar: section
Encoding: 167 167 319
Width: 1058
VWidth: 0
GlyphClass: 2
Flags: W
LayerCount: 2
Fore
SplineSet
572 547 m 1
 637 587 714 644 714 723 c 0
 714 839 559 868 476 912 c 1
 408 874 343 821 343 741 c 0
 343 643 436 603 572 547 c 1
463 -48 m 0
 372 -48 276 -31 193 4 c 1
 191 153 l 1
 289 108 379 89 458 89 c 0
 608 89 696 156 696 243 c 0
 696 331 402 454 402 454 c 1
 258 516 166 602 166 729 c 0
 166 843 254 925 355 975 c 1
 259 1035 202 1101 202 1217 c 0
 202 1402 374 1492 584 1492 c 0
 670 1492 734 1476 813 1452 c 1
 815 1304 l 1
 752 1333 653 1356 589 1356 c 0
 467 1356 374 1318 374 1221 c 0
 374 1141 424 1094 592 1022 c 0
 752 954 892 879 892 737 c 0
 892 626 803 539 706 480 c 1
 802 431 869 368 869 252 c 0
 869 59 677 -48 463 -48 c 0
EndSplineSet
EndChar

StartChar: semicolon
Encoding: 59 59 320
Width: 545
VWidth: 0
GlyphClass: 2
Flags: W
LayerCount: 2
Fore
SplineSet
100 -256 m 1
 206 207 l 1
 394 207 l 1
 231 -256 l 1
 100 -256 l 1
159 841 m 1
 159 1051 l 1
 376 1051 l 1
 376 841 l 1
 159 841 l 1
EndSplineSet
EndChar

StartChar: seven
Encoding: 55 55 321
Width: 1218
VWidth: 0
GlyphClass: 2
Flags: W
LayerCount: 2
Fore
SplineSet
359 0 m 1
 895 1311 l 1
 172 1311 l 1
 172 1456 l 1
 1087 1456 l 1
 1087 1329 l 1
 545 0 l 1
 359 0 l 1
EndSplineSet
EndChar

StartChar: six
Encoding: 54 54 322
Width: 1218
VWidth: 0
GlyphClass: 2
Flags: W
LayerCount: 2
Fore
SplineSet
645 -23 m 0
 296 -23 134 268 134 692 c 0
 134 1125 316 1483 696 1483 c 0
 840 1483 956 1433 1030 1371 c 1
 970 1248 l 1
 903 1301 807 1334 697 1334 c 0
 436 1334 330 1077 315 795 c 0
 314 777 314 758 314 739 c 1
 376 838 483 933 686 933 c 0
 930 933 1119 751 1119 464 c 0
 1119 187 940 -23 645 -23 c 0
651 124 m 0
 837 124 941 267 941 458 c 0
 941 647 845 794 642 794 c 0
 464 794 332 677 332 512 c 0
 332 271 434 124 651 124 c 0
EndSplineSet
EndChar

StartChar: slash
Encoding: 47 47 323
Width: 1218
VWidth: 0
GlyphClass: 2
Flags: W
LayerCount: 2
Fore
SplineSet
267 -60 m 1
 784 1456 l 1
 951 1456 l 1
 430 -60 l 1
 267 -60 l 1
EndSplineSet
EndChar

StartChar: sterling
Encoding: 163 163 325
Width: 1220
VWidth: 0
GlyphClass: 2
Flags: W
LayerCount: 2
Fore
SplineSet
136 0 m 1
 136 138 l 1
 228 191 318 298 318 480 c 2
 318 690 l 1
 95 690 l 1
 95 812 l 1
 317 812 l 1
 317 926 l 2
 317 1221 396 1448 734 1448 c 0
 874 1448 968 1405 1013 1367 c 1
 961 1247 l 1
 911 1283 845 1307 737 1307 c 0
 540 1307 486 1171 486 964 c 1
 487 812 l 1
 819 812 l 1
 819 690 l 1
 489 690 l 1
 489 479 l 2
 489 301 411 184 381 141 c 1
 1030 141 l 1
 1031 0 l 1
 136 0 l 1
EndSplineSet
EndChar

StartChar: summation
Encoding: 8721 8721 326
Width: 1264
VWidth: 0
GlyphClass: 2
Flags: W
LayerCount: 2
Fore
SplineSet
57 -329 m 1
 57 -239 l 1
 697 552 l 1
 79 1328 l 1
 79 1423 l 1
 1175 1423 l 1
 1175 1281 l 1
 325 1281 l 1
 898 561 l 1
 294 -181 l 1
 1220 -181 l 1
 1220 -329 l 1
 57 -329 l 1
EndSplineSet
EndChar

StartChar: t
Encoding: 116 116 327
Width: 726
VWidth: 0
GlyphClass: 2
Flags: W
LayerCount: 2
Fore
SplineSet
664 0 m 1
 629 0 l 1
 270 6 237 104 237 352 c 2
 237 919 l 1
 34 919 l 1
 34 1026 l 1
 242 1026 l 1
 242 1298 l 1
 402 1345 l 1
 402 1026 l 1
 658 1026 l 1
 658 919 l 1
 402 919 l 1
 402 329 l 2
 402 168 404 128 664 128 c 1
 664 0 l 1
EndSplineSet
EndChar

StartChar: tbar
Encoding: 359 359 328
Width: 726
VWidth: 0
GlyphClass: 2
Flags: W
LayerCount: 2
Fore
SplineSet
35 609 m 1
 35 746 l 1
 664 746 l 1
 664 609 l 1
 35 609 l 1
EndSplineSet
Refer: 327 116 N 1 0 0 1 0 0 2
EndChar

StartChar: thorn
Encoding: 254 254 330
Width: 1239
VWidth: 0
GlyphClass: 2
Flags: W
LayerCount: 2
Fore
SplineSet
158 -427 m 1
 158 1456 l 1
 325 1456 l 1
 325 882 l 1
 408 993 530 1051 668 1051 c 0
 990 1051 1139 812 1139 527 c 0
 1139 239 983 -23 668 -23 c 0
 524 -23 408 31 323 135 c 1
 323 -427 l 1
 158 -427 l 1
644 109 m 0
 868 109 963 304 963 521 c 0
 963 725 885 917 650 917 c 0
 405 917 323 715 323 494 c 0
 323 273 435 109 644 109 c 0
EndSplineSet
EndChar

StartChar: three
Encoding: 51 51 331
Width: 1218
VWidth: 0
GlyphClass: 2
Flags: W
LayerCount: 2
Fore
SplineSet
582 -23 m 0
 375 -23 211 56 141 187 c 1
 235 291 l 1
 306 186 436 124 591 124 c 0
 781 124 913 228 913 404 c 0
 913 609 756 688 505 688 c 0
 482 688 451 687 428 686 c 1
 426 833 l 1
 446 832 470 832 489 832 c 0
 723 832 868 901 868 1111 c 0
 868 1265 750 1336 587 1336 c 0
 416 1336 317 1275 251 1183 c 1
 153 1274 l 1
 233 1422 401 1483 599 1483 c 0
 833 1483 1052 1353 1052 1112 c 0
 1052 932 936 813 763 764 c 1
 959 724 1090 596 1090 401 c 0
 1090 138 866 -23 582 -23 c 0
EndSplineSet
EndChar

StartChar: threequarters
Encoding: 190 190 332
Width: 1986
VWidth: 0
GlyphClass: 2
Flags: W
LayerCount: 2
Fore
SplineSet
451 602 m 0
 355 602 269 635 205 699 c 1
 265 795 l 1
 320 744 383 717 446 717 c 0
 542 717 621 767 621 853 c 0
 621 951 538 987 406 987 c 0
 401 987 350 986 350 986 c 1
 350 1105 l 1
 399 1105 l 2
 514 1105 596 1135 596 1226 c 0
 596 1304 537 1338 455 1338 c 0
 384 1338 320 1307 263 1260 c 1
 205 1356 l 1
 266 1416 362 1456 457 1456 c 0
 597 1456 729 1375 729 1229 c 0
 729 1151 691 1085 622 1048 c 1
 701 1012 750 946 750 850 c 0
 750 697 612 602 451 602 c 0
1229 331 m 1
 1466 331 l 1
 1466 665 l 1
 1229 331 l 1
1468 36 m 1
 1468 224 l 1
 1090 224 l 1
 1090 315 l 1
 1456 833 l 1
 1590 833 l 1
 1590 331 l 1
 1699 331 l 1
 1709 224 l 1
 1588 224 l 1
 1588 36 l 1
 1468 36 l 1
469 0 m 1
 1374 1456 l 1
 1523 1456 l 1
 620 0 l 1
 469 0 l 1
EndSplineSet
EndChar

StartChar: threesuperior
Encoding: 179 179 333
Width: 1190
VWidth: 0
GlyphClass: 2
Flags: W
LayerCount: 2
Fore
SplineSet
572 586 m 0
 476 586 380 619 316 683 c 1
 376 779 l 1
 431 728 504 701 567 701 c 0
 663 701 732 751 732 837 c 0
 732 935 649 971 517 971 c 2
 461 971 l 1
 461 1089 l 1
 510 1089 l 2
 625 1089 707 1119 707 1210 c 0
 707 1288 658 1322 576 1322 c 0
 505 1322 431 1291 374 1244 c 1
 316 1340 l 1
 377 1400 483 1441 578 1441 c 0
 718 1441 840 1359 840 1213 c 0
 840 1135 802 1059 683 1032 c 1
 802 1006 861 930 861 834 c 0
 861 681 733 586 572 586 c 0
EndSplineSet
EndChar

StartChar: tilde
Encoding: 732 732 334
Width: 663
VWidth: 0
GlyphClass: 4
Flags: W
LayerCount: 2
Fore
SplineSet
10 1203 m 1
 21 1328 96 1413 208 1413 c 0
 301 1413 381 1345 458 1345 c 0
 503 1345 538 1376 546 1435 c 1
 654 1435 l 1
 642 1315 573 1220 458 1220 c 0
 379 1220 281 1288 206 1288 c 0
 153 1288 121 1260 114 1203 c 1
 10 1203 l 1
EndSplineSet
EndChar

StartChar: trademark
Encoding: 8482 8482 335
Width: 1869
VWidth: 0
GlyphClass: 2
Flags: W
LayerCount: 2
Fore
SplineSet
819 686 m 1
 819 1451 l 1
 1009 1451 l 1
 1245 900 l 1
 1495 1451 l 1
 1675 1451 l 1
 1675 686 l 1
 1553 686 l 1
 1553 1281 l 1
 1279 686 l 1
 1199 686 l 1
 940 1280 l 1
 940 686 l 1
 819 686 l 1
323 686 m 1
 323 1350 l 1
 70 1350 l 1
 70 1451 l 1
 708 1451 l 1
 707 1350 l 1
 447 1350 l 1
 447 686 l 1
 323 686 l 1
EndSplineSet
EndChar

StartChar: two
Encoding: 50 50 336
Width: 1218
VWidth: 0
GlyphClass: 2
Flags: W
LayerCount: 2
Fore
SplineSet
190 0 m 1
 189 147 l 1
 504 414 858 747 858 1078 c 0
 858 1267 758 1336 586 1336 c 0
 431 1336 292 1254 231 1113 c 1
 134 1210 l 1
 198 1381 373 1483 585 1483 c 0
 844 1483 1033 1349 1033 1085 c 0
 1033 725 747 411 410 145 c 1
 1036 145 l 1
 1036 0 l 1
 190 0 l 1
EndSplineSet
EndChar

StartChar: twosuperior
Encoding: 178 178 337
Width: 1190
VWidth: 0
GlyphClass: 2
Flags: W
LayerCount: 2
Fore
SplineSet
323 620 m 1
 323 731 l 1
 566 955 741 1116 741 1227 c 0
 741 1294 688 1339 601 1339 c 0
 518 1339 454 1289 416 1208 c 1
 331 1286 l 1
 377 1394 480 1456 607 1456 c 0
 757 1456 870 1368 870 1229 c 0
 870 1057 709 913 505 738 c 1
 869 738 l 1
 869 620 l 1
 323 620 l 1
EndSplineSet
EndChar

StartChar: u
Encoding: 117 117 338
Width: 1249
VWidth: 0
GlyphClass: 2
Flags: W
LayerCount: 2
Fore
SplineSet
554 -23 m 0
 250 -23 164 199 164 399 c 2
 164 1026 l 1
 329 1026 l 1
 329 396 l 2
 329 208 417 109 592 109 c 0
 783 109 900 259 900 436 c 2
 900 1026 l 1
 1065 1026 l 1
 1065 246 l 2
 1065 158 1067 84 1073 0 c 1
 903 0 l 1
 900 135 l 1
 823 30 701 -23 554 -23 c 0
EndSplineSet
EndChar

StartChar: underscore
Encoding: 95 95 346
Width: 918
VWidth: 0
GlyphClass: 2
Flags: W
LayerCount: 2
Fore
SplineSet
-2 -273 m 1
 -2 -145 l 1
 920 -145 l 1
 920 -273 l 1
 -2 -273 l 1
EndSplineSet
EndChar

StartChar: uni007F
Encoding: 127 127 348
Width: 1521
VWidth: 0
GlyphClass: 2
Flags: W
LayerCount: 2
Fore
SplineSet
188 0 m 1
 188 1456 l 1
 1333 1456 l 1
 1333 0 l 1
 188 0 l 1
360 1330 m 1
 360 124 l 1
 1161 124 l 1
 1161 1330 l 1
 360 1330 l 1
EndSplineSet
EndChar

StartChar: uni00AD
Encoding: 173 173 350
Width: 728
VWidth: 0
GlyphClass: 2
Flags: W
LayerCount: 2
Fore
SplineSet
79 1183 m 1
 78 1317 l 1
 649 1317 l 1
 650 1183 l 1
 79 1183 l 1
EndSplineSet
EndChar

StartChar: uni0311
Encoding: 785 785 386
Width: 629
VWidth: 0
GlyphClass: 4
Flags: W
LayerCount: 2
Fore
SplineSet
32 1218 m 1
 45 1379 151 1456 316 1456 c 0
 473 1456 584 1376 596 1218 c 1
 510 1218 l 1
 488 1309 398 1347 310 1347 c 0
 222 1347 136 1314 120 1218 c 1
 32 1218 l 1
EndSplineSet
EndChar

StartChar: uni2015
Encoding: 8213 8213 401
Width: 4096
VWidth: 0
GlyphClass: 2
Flags: W
LayerCount: 2
Fore
SplineSet
64 489 m 1
 64 626 l 1
 4032 626 l 1
 4032 489 l 1
 64 489 l 1
EndSplineSet
EndChar

StartChar: uni2206
Encoding: 8710 8710 402
Width: 1314
VWidth: 0
GlyphClass: 2
Flags: W
LayerCount: 2
Fore
SplineSet
40 0 m 1
 40 80 l 1
 561 1429 l 1
 743 1429 l 1
 1263 80 l 1
 1263 0 l 1
 40 0 l 1
269 162 m 1
 1033 162 l 1
 681 1111 l 1
 647 1218 l 1
 615 1111 l 1
 269 162 l 1
EndSplineSet
EndChar

StartChar: v
Encoding: 118 118 406
Width: 1026
VWidth: 0
GlyphClass: 2
Flags: W
LayerCount: 2
Fore
SplineSet
427 0 m 1
 0 1026 l 1
 182 1026 l 1
 461 336 l 2
 480 291 519 163 519 163 c 1
 519 163 556 289 575 336 c 2
 849 1026 l 1
 1026 1026 l 1
 595 0 l 1
 427 0 l 1
EndSplineSet
EndChar

StartChar: w
Encoding: 119 119 407
Width: 1592
VWidth: 0
GlyphClass: 2
Flags: W
LayerCount: 2
Fore
SplineSet
347 0 m 1
 22 1026 l 1
 198 1026 l 1
 407 284 l 1
 417 253 436 186 436 186 c 1
 436 186 456 245 467 276 c 2
 728 1026 l 1
 894 1026 l 1
 1138 286 l 2
 1148 255 1167 189 1167 189 c 1
 1167 189 1190 252 1201 287 c 1
 1401 1026 l 1
 1570 1026 l 1
 1242 0 l 1
 1082 0 l 1
 850 699 l 1
 805 831 l 1
 758 702 l 1
 509 0 l 1
 347 0 l 1
EndSplineSet
EndChar

StartChar: x
Encoding: 120 120 412
Width: 1073
VWidth: 0
GlyphClass: 2
Flags: W
LayerCount: 2
Fore
SplineSet
41 0 m 1
 439 511 l 1
 60 1026 l 1
 263 1026 l 1
 532 631 l 1
 840 1026 l 1
 1019 1026 l 1
 633 524 l 1
 1032 0 l 1
 831 0 l 1
 545 409 l 1
 231 0 l 1
 41 0 l 1
EndSplineSet
EndChar

StartChar: y
Encoding: 121 121 413
Width: 1033
VWidth: 0
GlyphClass: 2
Flags: W
LayerCount: 2
Fore
SplineSet
188 -432 m 1
 121 -314 l 1
 344 -254 390 -140 424 -43 c 2
 441 6 l 1
 50 1026 l 1
 231 1026 l 1
 533 172 l 1
 838 1026 l 1
 1013 1026 l 1
 591 -72 l 1
 518 -248 377 -397 188 -432 c 1
EndSplineSet
EndChar

StartChar: yen
Encoding: 165 165 417
Width: 1218
VWidth: 0
GlyphClass: 2
Flags: W
LayerCount: 2
Fore
SplineSet
1000 253 m 1
 192 253 l 1
 192 385 l 1
 548 385 l 1
 548 552 l 1
 192 552 l 1
 192 686 l 1
 1000 686 l 1
 1000 552 l 1
 660 552 l 1
 660 385 l 1
 1000 385 l 1
 1000 253 l 1
EndSplineSet
Refer: 113 89 N 1 0 0 1 18 0 2
EndChar

StartChar: z
Encoding: 122 122 419
Width: 949
VWidth: 0
GlyphClass: 2
Flags: W
LayerCount: 2
Fore
SplineSet
82 0 m 1
 82 89 l 1
 643 891 l 1
 84 891 l 1
 84 1026 l 1
 862 1026 l 1
 862 939 l 1
 305 134 l 1
 877 134 l 1
 877 0 l 1
 82 0 l 1
EndSplineSet
EndChar

StartChar: zero
Encoding: 48 48 423
Width: 1218
VWidth: 0
GlyphClass: 2
Flags: W
LayerCount: 2
Fore
SplineSet
617 124 m 0
 842 124 911 385 911 729 c 0
 911 1081 840 1334 616 1334 c 0
 387 1334 301 1081 301 730 c 0
 301 386 388 124 617 124 c 0
614 -23 m 0
 285 -23 124 290 124 730 c 0
 124 1196 285 1483 616 1483 c 0
 947 1483 1094 1195 1094 729 c 0
 1094 288 947 -23 614 -23 c 0
EndSplineSet
EndChar
